<svg id="1550fc5f-6e25-4660-bc64-7adab7c1b7e1" data-name="Layer 1" xmlns="http://www.w3.org/2000/svg" viewBox="0 0 134.5 214"><defs><style>.\37 6a30195-f015-4846-a4ca-2489f84e3ffa{fill:#00512d;}.\35 325d47b-57f2-4b33-8f0e-b7e97733dc5b{fill:#231f20;}.\34 0479b26-be3d-4a0f-8a97-fb389483c2de,.ee822627-1873-4930-ba32-0a287cd1710e{fill:#b2b248;}.\34 0479b26-be3d-4a0f-8a97-fb389483c2de{fill-rule:evenodd;}</style></defs><title>cma_logo</title><rect class="76a30195-f015-4846-a4ca-2489f84e3ffa" width="134.5" height="214"/><rect class="5325d47b-57f2-4b33-8f0e-b7e97733dc5b" x="7.16" y="7.57" width="120.19" height="198.86"/><path class="ee822627-1873-4930-ba32-0a287cd1710e" d="M539.46,183.3H418.54V382.9H539.46V183.3Zm-0.73.73V382.17H419.27V184H538.73Z" transform="translate(-411.75 -176.1)"/><path class="ee822627-1873-4930-ba32-0a287cd1710e" d="M466.09,288.44l1.42-.59v1.92h2.14v1H467.5v4.18a1,1,0,0,0,1.1,1.2,8.62,8.62,0,0,0,1.09-.09v1a11.05,11.05,0,0,1-1.36.09c-1.43,0-2.24-.46-2.24-2.08v-4.28h-1.9v-1h1.9v-1.33" transform="translate(-411.75 -176.1)"/><path class="ee822627-1873-4930-ba32-0a287cd1710e" d="M472.1,286.59h1.42V291h0a3.41,3.41,0,0,1,3.08-1.55,3.2,3.2,0,0,1,3.52,3.42V297h-1.42V293a2.25,2.25,0,0,0-2.33-2.5,2.81,2.81,0,0,0-2.88,3.13V297H472.1V286.59" transform="translate(-411.75 -176.1)"/><path class="ee822627-1873-4930-ba32-0a287cd1710e" d="M491,293.78h-6.8a2.59,2.59,0,0,0,2.69,2.55,2.38,2.38,0,0,0,2.43-1.47h1.51c-0.29,1.94-2.26,2.46-3.86,2.46-2.66,0-4.18-1.46-4.18-3.76,0-2.65,1.59-4.05,4.22-4.05s4,1.39,4,3.85v0.43m-1.51-1a2.28,2.28,0,0,0-2.52-2.32,2.48,2.48,0,0,0-2.72,2.32h5.24Z" transform="translate(-411.75 -176.1)"/><path class="ee822627-1873-4930-ba32-0a287cd1710e" d="M423.86,318.52a7.09,7.09,0,0,1,.6-2.91,9,9,0,0,1,1.61-2.45,11.92,11.92,0,0,1,2.32-1.95,16.35,16.35,0,0,1,2.75-1.43,17.13,17.13,0,0,1,2.88-.89,13.12,13.12,0,0,1,2.73-.31q0.67,0,1.2,0a7.18,7.18,0,0,1,1,.14,10.42,10.42,0,0,1,1.07.29q0.57,0.18,1.3.49a2.38,2.38,0,0,1,.32.31,3.47,3.47,0,0,1,.29.34v0.15a2.11,2.11,0,0,1-.79,1.46,10,10,0,0,1-1.84,1.38,13.33,13.33,0,0,1-2.16,1,5.35,5.35,0,0,1-1.75.41,0.59,0.59,0,0,1-.57-0.46,6.75,6.75,0,0,0-.48-1,3.2,3.2,0,0,0-1-1,3.61,3.61,0,0,0-2-.46,2.39,2.39,0,0,0-.89.18,3.83,3.83,0,0,0-.87.49,3.4,3.4,0,0,0-.72.72,2.66,2.66,0,0,0-.43.84v0.37c0,0.16,0,.34,0,0.52s0,0.36,0,.52v0.34a7.8,7.8,0,0,0,.6,3.13,6.8,6.8,0,0,0,1.66,2.35,7.17,7.17,0,0,0,2.5,1.47,9.45,9.45,0,0,0,3.16.51A1.89,1.89,0,0,0,437,323c0.2-.07.39-0.15,0.58-0.24l0.58-.26a1.6,1.6,0,0,1,.63-0.12,2.86,2.86,0,0,1-.72,2.09,4.26,4.26,0,0,1-1.79,1.07A8.71,8.71,0,0,1,434,326c-0.81,0-1.54,0-2.2,0a9.69,9.69,0,0,1-3.11-.49,7.3,7.3,0,0,1-2.54-1.44,6.66,6.66,0,0,1-1.69-2.35,7.88,7.88,0,0,1-.62-3.2" transform="translate(-411.75 -176.1)"/><path class="ee822627-1873-4930-ba32-0a287cd1710e" d="M443.07,318.46a7.84,7.84,0,0,1,1.1-4,11.9,11.9,0,0,1,2.84-3.28,14.09,14.09,0,0,1,3.82-2.19,11.41,11.41,0,0,1,4.08-.8c0.45,0,1,0,1.6.08a9,9,0,0,1,1.81.34,5.42,5.42,0,0,1,1.6.75,2.39,2.39,0,0,1,1,1.32,5.71,5.71,0,0,1-1.26,1.18q-0.86.63-1.75,1.2c-0.59.38-1.11,0.73-1.56,1a1.35,1.35,0,0,0-.67.72,0.25,0.25,0,0,0,0,.08,0.27,0.27,0,0,1,0,.08c0.51,0.1,1.08.19,1.72,0.26s1.27,0.13,1.92.17l1.86,0.11,1.56,0.08a0.21,0.21,0,0,0,0,.08,0.31,0.31,0,0,1,0,.08,1.14,1.14,0,0,1-.47.91,4.87,4.87,0,0,1-1.18.67,10.16,10.16,0,0,1-1.55.49q-0.84.2-1.6,0.32c-0.5.08-.94,0.14-1.31,0.17l-0.67,0a14.9,14.9,0,0,1-2.24-.17,14.74,14.74,0,0,0-2.24-.17h-0.89a3.66,3.66,0,0,0-1.14.17,3.27,3.27,0,0,0-1.17.78,0.25,0.25,0,0,1,0,.08,0.27,0.27,0,0,0,0,.08,1.14,1.14,0,0,0,0,.15,6.63,6.63,0,0,0,2.87,3.07,8.62,8.62,0,0,0,4,.95h1.69a3.05,3.05,0,0,0,.92-0.48l0.86-.63a6.54,6.54,0,0,1,.89-0.54,2.38,2.38,0,0,1,1.07-.23,2.44,2.44,0,0,1-.58,1.6,5,5,0,0,1-1.52,1.21,11.54,11.54,0,0,1-2.07.86q-1.14.35-2.26,0.58a19.65,19.65,0,0,1-2.09.32c-0.64.06-1.16,0.09-1.55,0.09a7,7,0,0,1-2.88-.6,7.64,7.64,0,0,1-2.38-1.64,7.9,7.9,0,0,1-1.63-2.41,7.16,7.16,0,0,1-.6-2.9m4.3-2.6a6.68,6.68,0,0,0,.2,1,5.33,5.33,0,0,0,.25.63,0.4,0.4,0,0,0,.32.29l0.08,0,0.08,0a22.2,22.2,0,0,1,1.93-1.15q1-.54,2-1.12t2-1.21a11.22,11.22,0,0,0,1.75-1.43,1.13,1.13,0,0,1,0-.14,1.1,1.1,0,0,0,0-.17,0.86,0.86,0,0,0-.58-0.82,4.93,4.93,0,0,0-1.35-.36,10.39,10.39,0,0,0-1.55-.09h-3a2.09,2.09,0,0,0-1,.75,5.07,5.07,0,0,0-.66,1.21,6.53,6.53,0,0,0-.37,1.38A8.25,8.25,0,0,0,447.36,315.86Z" transform="translate(-411.75 -176.1)"/><path class="ee822627-1873-4930-ba32-0a287cd1710e" d="M468.44,325.66a4.08,4.08,0,0,1-1-.74,1.4,1.4,0,0,1-.26-0.92c0-.12,0-0.28,0-0.46a0.35,0.35,0,0,1,.32-0.34c0.06-.43.11-0.8,0.15-1.1s0.07-.59.09-0.84,0-.52,0-0.78,0-.57,0-0.92q0-1.5-.07-2.85c-0.05-.9-0.12-1.9-0.22-3a1.74,1.74,0,0,0-.55-1,3.39,3.39,0,0,0-1.08-.67,4.79,4.79,0,0,0-1.62-.31q-1,0-.06-0.8a22.58,22.58,0,0,1,3.36-2.27q1.82-1,3.94-2h0.31a2,2,0,0,1,.38,0,0.26,0.26,0,0,1,.23.29v16.1h7.36a0.3,0.3,0,0,1,.29.32,3.71,3.71,0,0,1,0,.48,1.11,1.11,0,0,1-.41.82,4.44,4.44,0,0,1-1,.67,6.24,6.24,0,0,1-1.18.46,4,4,0,0,1-1,.17h-0.15l-0.46,0-0.78-.11-0.77-.11-0.45,0h-5.52" transform="translate(-411.75 -176.1)"/><path class="ee822627-1873-4930-ba32-0a287cd1710e" d="M482.11,319.23a11.56,11.56,0,0,1,1.47-3.81,20.49,20.49,0,0,1,2.52-3.25l-0.31-.46h-5.22a2.4,2.4,0,0,1,1.24-1.43,6.91,6.91,0,0,1,2.06-.61,22.18,22.18,0,0,1,2.42-.21,17.08,17.08,0,0,0,2.32-.23,4.36,4.36,0,0,0,1.72-.65,1.65,1.65,0,0,0,.68-1.47V307l-0.61-1.54v-0.15a0.89,0.89,0,0,1,.42-0.69,4,4,0,0,1,1-.55,7,7,0,0,1,1.18-.35,4.86,4.86,0,0,1,.93-0.12,1.63,1.63,0,0,1,1.72,1.72,2.15,2.15,0,0,1-.28,1.07,7.71,7.71,0,0,1-.61.94c-0.23.3-.43,0.59-0.61,0.87a1.67,1.67,0,0,0-.28.92,28.27,28.27,0,0,0,2.94-.15,28.53,28.53,0,0,1,3-.15,1.26,1.26,0,0,1-.29.8,4,4,0,0,1-.69.67,3.59,3.59,0,0,1-.86.49,3,3,0,0,1-.77.22l-6.76.61a2,2,0,0,0-1.32.66,5.25,5.25,0,0,0-1,1.4,8.55,8.55,0,0,0-.6,1.67,6.23,6.23,0,0,0-.21,1.46,6.58,6.58,0,0,0,.51,2.62,6.23,6.23,0,0,0,1.41,2.06,6.35,6.35,0,0,0,2.12,1.35,7.11,7.11,0,0,0,2.62.48,3.67,3.67,0,0,0,1.27-.23,3.55,3.55,0,0,0,1.12-.66,3.41,3.41,0,0,0,.8-1,2.88,2.88,0,0,0,.31-1.33,3.4,3.4,0,0,0-.15-1,3.91,3.91,0,0,0-.43-1,2.55,2.55,0,0,0-.69-0.74,1.54,1.54,0,0,0-.91-0.29,3.26,3.26,0,0,0-1.61.51,12.44,12.44,0,0,1-2.11.94,1.81,1.81,0,0,1,.71-1.69,5.06,5.06,0,0,1,.74-0.45l0.83-.41a23.3,23.3,0,0,1,2.56-1,7.06,7.06,0,0,1,1.86-.38,2.33,2.33,0,0,1,1.32.37,3.08,3.08,0,0,1,.91.92,4.06,4.06,0,0,1,.52,1.24,5.61,5.61,0,0,1,.17,1.33,4.94,4.94,0,0,1-.61,2.47,7.06,7.06,0,0,1-1.61,1.93,9.68,9.68,0,0,1-2.29,1.43,19,19,0,0,1-5.38,1.52,20.19,20.19,0,0,1-2.42.17,5.58,5.58,0,0,1-1.79-.31,7.46,7.46,0,0,1-1.72-.84,6.46,6.46,0,0,1-1.43-1.27A4.85,4.85,0,0,1,483,322c0-.12-0.09-0.3-0.14-0.54s-0.12-.48-0.2-0.75-0.17-.53-0.26-0.8a3,3,0,0,0-.32-0.67" transform="translate(-411.75 -176.1)"/><path class="ee822627-1873-4930-ba32-0a287cd1710e" d="M502.36,313.86v-0.16l2.38-1.44,2-1.21q1-.63,1.75-1l0.35-.18,0.57-.28,0.57-.28a3.17,3.17,0,0,0,.35-0.18,0.48,0.48,0,0,1,.22,0l0.24,0a1.81,1.81,0,0,1-.12.62,0.53,0.53,0,0,1-.49.37v14.42a0.72,0.72,0,0,1-.23.18l-0.54.35-0.66.4c-0.24.13-.43,0.23-0.57,0.29a0.54,0.54,0,0,1-.18.08l-0.35.09-0.4.09a1.4,1.4,0,0,1-.29,0h-0.34a3,3,0,0,1-.66-0.09,0.48,0.48,0,0,1-.38-0.52V314.93a0.62,0.62,0,0,0-.45-0.49,4.42,4.42,0,0,0-1-.34c-0.39-.08-0.76-0.14-1.11-0.19l-0.64-.06m2.76-5.05a3.89,3.89,0,0,1,1-.91,5.47,5.47,0,0,1,1.11-.52,10.86,10.86,0,0,1,1.21-.34,9.94,9.94,0,0,0,1.3-.38l1.84-.92,0.14,0,0.17,0,0.17,0,0.14,0a4.65,4.65,0,0,1-1.12,1,18.37,18.37,0,0,1-1.83,1.11q-1,.52-1.92.91a4.19,4.19,0,0,1-1.42.38h-0.16l-0.3-.14A1.24,1.24,0,0,1,505.12,308.81Z" transform="translate(-411.75 -176.1)"/><path class="ee822627-1873-4930-ba32-0a287cd1710e" d="M514.8,314a8.89,8.89,0,0,1,2.62-2.92,11.68,11.68,0,0,1,3.7-1.72,15.81,15.81,0,0,1,4.19-.57l1.42,0a16,16,0,0,1,2,.2,9.93,9.93,0,0,1,1.87.48,1.42,1.42,0,0,1,1,.86,0.75,0.75,0,0,1-.37.65,6.64,6.64,0,0,1-1.13.75,17.1,17.1,0,0,1-1.6.75c-0.6.25-1.18,0.47-1.75,0.66s-1.11.35-1.59,0.48a5,5,0,0,1-1.11.18,3.3,3.3,0,0,0-.46-1.95,2.26,2.26,0,0,0-1.9-.63,3.86,3.86,0,0,0-1.66.31,2.4,2.4,0,0,0-1,.87,3.46,3.46,0,0,0-.49,1.37,11.87,11.87,0,0,0-.12,1.78,6.87,6.87,0,0,0,.63,2.88,8.1,8.1,0,0,0,1.7,2.44,8.75,8.75,0,0,0,2.45,1.7,6.83,6.83,0,0,0,2.92.64h0.28l4-1.84h0.4a1.6,1.6,0,0,1-.49,1.06A7.15,7.15,0,0,1,529,323.5a13.15,13.15,0,0,1-1.7,1q-0.94.44-1.87,0.78a17.79,17.79,0,0,1-1.75.54,5.8,5.8,0,0,1-1.31.2,10,10,0,0,1-3.35-.55,8.48,8.48,0,0,1-2.74-1.56,7.2,7.2,0,0,1-1.86-2.45,7.59,7.59,0,0,1-.67-3.25,8.37,8.37,0,0,1,1-4.19" transform="translate(-411.75 -176.1)"/><path class="ee822627-1873-4930-ba32-0a287cd1710e" d="M426,341.75V341.6a0.3,0.3,0,0,1,.11-0.17,0.75,0.75,0,0,1,.17-0.14l7-3.41a1.15,1.15,0,0,1,.29-0.06l0.32,0a0.8,0.8,0,0,1,.68.32,2.67,2.67,0,0,1,.4.77,4.5,4.5,0,0,1,.21.93c0,0.33.08,0.61,0.12,0.86h0.31l1.4-.84a15.73,15.73,0,0,1,1.49-.81,11.06,11.06,0,0,1,1.57-.61,5.42,5.42,0,0,1,1.6-.25,3.37,3.37,0,0,1,1.3.26,11.13,11.13,0,0,1,1.15.56q0.52,0.29.9,0.56a1.21,1.21,0,0,0,.63.26,4.08,4.08,0,0,0,1.7-.4q0.87-.4,1.81-0.86t1.95-.86a5.62,5.62,0,0,1,2.09-.4,9.24,9.24,0,0,1,1.71.18,8.75,8.75,0,0,1,1.87.58,5.46,5.46,0,0,1,1.58,1,2.6,2.6,0,0,1,.8,1.6v0.4q0,0.28,0,.6c0,0.21,0,.41,0,0.6v0.4a9.44,9.44,0,0,1-.32,2.59,9,9,0,0,1-.89,2.09,11.6,11.6,0,0,1-1.38,1.87q-0.81.9-1.79,1.95l0.31,0.31h0.18l0.35,0,0.38,0h0.37a16.21,16.21,0,0,0,2.35-.17,15.94,15.94,0,0,1,2.35-.17h0.12l0.12,0.15a3.3,3.3,0,0,1,.18.28l0.18,0.31a1.15,1.15,0,0,0,.12.18,1,1,0,0,1,0,.15,0.53,0.53,0,0,1-.18.37,2.65,2.65,0,0,1-.41.34l-0.41.26-0.22.14q-1.44.15-3,.37t-3.08.4q-1.56.19-3.1,0.32t-3,.14h-0.09l-0.15-.15a0.42,0.42,0,0,1-.12-0.15,1,1,0,0,1,.12-0.34l0.15-.31q1-.61,2.13-1.38a12.79,12.79,0,0,0,2-1.72,8.45,8.45,0,0,0,1.46-2.14,6,6,0,0,0,.57-2.62,7,7,0,0,0-.4-2.39,5.52,5.52,0,0,0-1.13-1.9,3.88,3.88,0,0,0-1.75-1.15,7.88,7.88,0,0,0-2.39-.32,2.85,2.85,0,0,0-2.61,1.41,7.28,7.28,0,0,0-.86,3.81c0,0.71-.05,1.46,0,2.22s0,1.5,0,2.2,0,1.34,0,1.93a9,9,0,0,1-.15,1.47,1.31,1.31,0,0,1-.54.63,7.46,7.46,0,0,1-1,.6,7.57,7.57,0,0,1-1.06.45,2.89,2.89,0,0,1-.77.17h-0.15a0.8,0.8,0,0,1-.17-0.14,0.73,0.73,0,0,1-.14-0.17c0-.22,0-0.57,0-1s0-1,0-1.58v-3.71c0-.57,0-1.1,0-1.58s0-.83,0-1.06a14.32,14.32,0,0,0-.17-1.64,6.6,6.6,0,0,0-.46-1.61,3.32,3.32,0,0,0-.91-1.23,2.26,2.26,0,0,0-1.51-.49,2.21,2.21,0,0,0-.86.18,4.23,4.23,0,0,0-.83.48,8.55,8.55,0,0,0-.75.61l-0.63.6c0,0.21,0,.52-0.06.93s0,0.9-.06,1.43,0,1.09-.08,1.67,0,1.14-.06,1.67,0,1,0,1.43,0,0.72,0,.9a14.77,14.77,0,0,1-.15,1.75,3.56,3.56,0,0,1-.49,1.38,2.44,2.44,0,0,1-1,.91,4.23,4.23,0,0,1-1.81.32,0.56,0.56,0,0,1-.41-0.17,1.16,1.16,0,0,1-.26-0.4,2.43,2.43,0,0,1-.14-0.51,3,3,0,0,1,0-.49v-7.43a3,3,0,0,0-.44-1.69,4.11,4.11,0,0,0-1.12-1.14,6,6,0,0,0-1.51-.74q-0.83-.27-1.56-0.46v-0.15" transform="translate(-411.75 -176.1)"/><path class="ee822627-1873-4930-ba32-0a287cd1710e" d="M477,352.67a21.43,21.43,0,0,1-3.5,1.43,13,13,0,0,1-3.74.51,6.19,6.19,0,0,1-2.41-.45,5,5,0,0,1-1.78-1.24,5.47,5.47,0,0,1-1.1-1.9,7.34,7.34,0,0,1-.38-2.42v-0.43c0-.18,0-0.36,0-0.54s0-.32,0-0.45V347l0.19-.55,0.34-1q0.19-.55.39-1.09t0.32-.81l0.26-.4,0.2-.31,0.15-.25,0.92-1.26a0.94,0.94,0,0,0,0-.15,0.82,0.82,0,0,0,0-.18,1.6,1.6,0,0,0-.48-0.23l-0.68-.2-0.63-.14-0.37,0a0.29,0.29,0,0,0,0-.08,0.21,0.21,0,0,1,0-.08,1.05,1.05,0,0,1,.58-0.84,6.23,6.23,0,0,1,1.37-.66,12,12,0,0,1,1.55-.43,6.69,6.69,0,0,1,1.11-.15l0.54,0h0.41l0.52,0.08,0.6,0.09,0.51,0.08a0.35,0.35,0,0,1,.21.06v0.31q-0.86.83-1.55,1.61a9.55,9.55,0,0,0-1.17,1.63,7.33,7.33,0,0,0-.72,1.83,9,9,0,0,0-.25,2.21q0,0.65,0,1.27a5.38,5.38,0,0,0,.19,1.18,4.21,4.21,0,0,0,.44,1,3.13,3.13,0,0,0,.81.89,6.28,6.28,0,0,0,2.14,1.1,8.62,8.62,0,0,0,2.33.31l0.54,0,0.6,0,0.28,0,1.84-1.9a6,6,0,0,0,0-.64c0-.18,0-0.37,0-0.55s0-.34,0-0.46q0-1-.06-2.08a6.19,6.19,0,0,0-.38-1.87,3.14,3.14,0,0,0-1-1.36,3.44,3.44,0,0,0-2-.6,2.23,2.23,0,0,1,.58-0.63c0.33-.28.73-0.58,1.2-0.92s1-.67,1.53-1,1.09-.65,1.63-0.94,1-.52,1.44-0.71a2.79,2.79,0,0,1,1-.28l0.17,0,0.14,0c0,0.27,0,.68.06,1.23s0,1.18.06,1.89,0,1.45.08,2.24,0,1.54.06,2.24,0,1.34,0,1.9,0,1,0,1.24V353a6.48,6.48,0,0,1-1.4,1.35,3.1,3.1,0,0,1-1.83.55h-0.77l-0.11-.37c-0.05-.18-0.11-0.37-0.18-0.58l-0.2-.58L477.6,353a1,1,0,0,0-.14-0.18,0.64,0.64,0,0,0-.17-0.15l-0.15,0-0.15,0" transform="translate(-411.75 -176.1)"/><path class="ee822627-1873-4930-ba32-0a287cd1710e" d="M484.69,352.81a1.32,1.32,0,0,1,.4-0.94,4.21,4.21,0,0,1,.92-0.72,7.22,7.22,0,0,1,1-.51l0.75-.29a4,4,0,0,0,1.64,1.49,4.69,4.69,0,0,0,2.1.51,7.78,7.78,0,0,0,1.15-.08,1.91,1.91,0,0,0,.86-0.34,1.64,1.64,0,0,0,.54-0.72,3.27,3.27,0,0,0,.19-1.2,2.14,2.14,0,0,0-.52-1.54,3.69,3.69,0,0,0-1.34-.87,7.43,7.43,0,0,0-1.81-.45l-2-.23q-1-.11-1.77-0.27a2.74,2.74,0,0,1-1.24-.54c0-.06,0-0.21,0-0.46s0-.42,0-0.52a4.4,4.4,0,0,1,.79-2.6,8.51,8.51,0,0,1,1.92-2,15.89,15.89,0,0,1,2.41-1.47L493,338a2.73,2.73,0,0,1,.71-0.29,3.71,3.71,0,0,1,.67,0l0.26,0,0.2,0,0.55,0.11,0.85,0.18,0.83,0.2a4.33,4.33,0,0,1,.54.15,1,1,0,0,1,.36.28,1.07,1.07,0,0,1,.26.37,0.93,0.93,0,0,1-.35.88,4.91,4.91,0,0,1-1.06.74,7.36,7.36,0,0,1-1.2.51,3.37,3.37,0,0,1-.77.18,2.18,2.18,0,0,1-.81-0.17,8.9,8.9,0,0,1-.84-0.4l-0.86-.44a3.52,3.52,0,0,0-.86-0.31h-0.15a1.37,1.37,0,0,0-.77.24,2.77,2.77,0,0,0-.65.6,3.1,3.1,0,0,0-.44.78,2.21,2.21,0,0,0-.17.8,1.36,1.36,0,0,0,.71,1.32,5.33,5.33,0,0,0,1.78.51q1.07,0.14,2.3.18a9.63,9.63,0,0,1,2.3.35,4,4,0,0,1,1.78,1,3,3,0,0,1,.71,2.16,4,4,0,0,1-.55,2.05,7.05,7.05,0,0,1-1.44,1.73,10.72,10.72,0,0,1-2,1.38,15.72,15.72,0,0,1-2.29,1,17,17,0,0,1-2.27.61,10.13,10.13,0,0,1-1.93.21,6.38,6.38,0,0,1-1.06-.11,5.58,5.58,0,0,1-1.21-.35,3.3,3.3,0,0,1-1-.64,1.35,1.35,0,0,1-.42-1" transform="translate(-411.75 -176.1)"/><path class="ee822627-1873-4930-ba32-0a287cd1710e" d="M500.18,342.8v-0.15l2.38-1.44,2-1.21c0.7-.42,1.28-0.76,1.75-1l0.35-.18,0.57-.28,0.57-.28a2.75,2.75,0,0,0,.36-0.18,0.52,0.52,0,0,1,.21,0h0.24a1.84,1.84,0,0,1-.12.61,0.53,0.53,0,0,1-.49.37v14.42a0.73,0.73,0,0,1-.23.18l-0.54.35q-0.31.2-.66,0.4a6,6,0,0,1-.57.29,0.6,0.6,0,0,1-.18.08l-0.35.09-0.4.09-0.29,0h-0.34a2.89,2.89,0,0,1-.66-0.09,0.47,0.47,0,0,1-.38-0.52V343.88a0.62,0.62,0,0,0-.45-0.49,4.38,4.38,0,0,0-1-.34c-0.39-.08-0.76-0.14-1.11-0.19l-0.64-.06m2.76-5.06a3.87,3.87,0,0,1,1-.91,5.38,5.38,0,0,1,1.1-.52,11.3,11.3,0,0,1,1.21-.34,9.69,9.69,0,0,0,1.3-.39l1.84-.92,0.14,0,0.17,0,0.17,0,0.14,0a4.61,4.61,0,0,1-1.12,1,18.48,18.48,0,0,1-1.83,1.1q-1,.52-1.92.9a4.2,4.2,0,0,1-1.43.38h-0.15l-0.31-.14A1.22,1.22,0,0,1,502.94,337.75Z" transform="translate(-411.75 -176.1)"/><path class="ee822627-1873-4930-ba32-0a287cd1710e" d="M512.62,342.91a8.87,8.87,0,0,1,2.62-2.92,11.65,11.65,0,0,1,3.69-1.72,15.8,15.8,0,0,1,4.19-.57l1.43,0a16,16,0,0,1,2,.2,10.08,10.08,0,0,1,1.87.48,1.41,1.41,0,0,1,1,.86,0.74,0.74,0,0,1-.37.65,6.57,6.57,0,0,1-1.13.75,17.05,17.05,0,0,1-1.59.75q-0.89.37-1.75,0.66t-1.6.48a5,5,0,0,1-1.1.18,3.32,3.32,0,0,0-.46-1.95,2.27,2.27,0,0,0-1.9-.63,3.88,3.88,0,0,0-1.66.31,2.42,2.42,0,0,0-1,.88,3.44,3.44,0,0,0-.49,1.36,12,12,0,0,0-.12,1.78,6.87,6.87,0,0,0,.63,2.88,8.17,8.17,0,0,0,1.7,2.44,8.8,8.8,0,0,0,2.45,1.7,6.85,6.85,0,0,0,2.92.64h0.27l4-1.84h0.4a1.6,1.6,0,0,1-.49,1.06,7.18,7.18,0,0,1-1.26,1.06,13,13,0,0,1-1.7,1q-0.94.45-1.87,0.78a18.11,18.11,0,0,1-1.75.54,5.74,5.74,0,0,1-1.31.2,10,10,0,0,1-3.34-.55,8.53,8.53,0,0,1-2.74-1.57,7.19,7.19,0,0,1-1.85-2.45,7.59,7.59,0,0,1-.68-3.25,8.39,8.39,0,0,1,1-4.19" transform="translate(-411.75 -176.1)"/><path class="ee822627-1873-4930-ba32-0a287cd1710e" d="M428.64,368.37c0.17-1.72,2-2.17,3.62-2.17,2,0,3.49.77,3.49,2.58v3.57a13,13,0,0,0,.06,1.39h-1.33a8,8,0,0,1-.06-1h0a3.4,3.4,0,0,1-3.17,1.29c-1.84,0-3.1-1-3.1-2.37,0-1.53,1.16-2.33,3.74-2.4,1.07,0,1.81,0,2.47,0V369c0-1.39-.87-1.82-2.27-1.82-1,0-1.84.39-1.91,1.19h-1.5m5.69,1.82c-0.48,0-1.17,0-2.26,0-1.48.06-2.45,0.3-2.45,1.36,0,0.73.59,1.43,2,1.43,1.75,0,2.74-.75,2.74-2.5v-0.33Z" transform="translate(-411.75 -176.1)"/><path class="ee822627-1873-4930-ba32-0a287cd1710e" d="M439.91,371.67c0.13,1,1.06,1.36,2.34,1.36,1.59,0,2.37-.49,2.37-1.26,0-1.7-5.88-.41-5.88-3.3,0-1.61,1.52-2.27,3.53-2.27,1.51,0,3.44.38,3.53,2.16h-1.38c-0.2-.91-1-1.17-2.1-1.17-1.27,0-2.17.44-2.17,1.1,0,0.51.46,0.83,1.55,1l2.4,0.45c1.36,0.26,2,.82,2,1.91,0,1.55-1.29,2.35-4,2.35-1.94,0-3.59-.65-3.69-2.35h1.51" transform="translate(-411.75 -176.1)"/><path class="ee822627-1873-4930-ba32-0a287cd1710e" d="M450.08,371.67c0.13,1,1.06,1.36,2.34,1.36,1.59,0,2.37-.49,2.37-1.26,0-1.7-5.87-.41-5.87-3.3,0-1.61,1.52-2.27,3.53-2.27,1.51,0,3.44.38,3.53,2.16h-1.37c-0.2-.91-1-1.17-2.1-1.17-1.27,0-2.17.44-2.17,1.1,0,0.51.46,0.83,1.55,1l2.4,0.45c1.36,0.26,2,.82,2,1.91,0,1.55-1.29,2.35-4,2.35-1.94,0-3.59-.65-3.69-2.35h1.51" transform="translate(-411.75 -176.1)"/><path class="ee822627-1873-4930-ba32-0a287cd1710e" d="M463.16,374c-3,0-4.54-1.42-4.54-3.91s1.51-3.91,4.54-3.91,4.54,1.42,4.54,3.91-1.59,3.91-4.54,3.91m-3-3.91a3,3,0,1,0,3-2.93A2.79,2.79,0,0,0,460.13,370.1Z" transform="translate(-411.75 -176.1)"/><path class="ee822627-1873-4930-ba32-0a287cd1710e" d="M478,371.39c-0.14,1.84-2,2.62-3.88,2.62-2.71,0-4.14-1.55-4.14-3.89s1.65-3.92,4.27-3.92c1.75,0,3.45.7,3.69,2.59h-1.5a1.92,1.92,0,0,0-2.17-1.61,2.93,2.93,0,0,0-.07,5.85c1.33,0,2.23-.62,2.3-1.63H478" transform="translate(-411.75 -176.1)"/><path class="ee822627-1873-4930-ba32-0a287cd1710e" d="M480.81,363.29h1.42v1.45h-1.42v-1.45Zm0,3.18h1.42v7.27h-1.42v-7.27Z" transform="translate(-411.75 -176.1)"/><path class="ee822627-1873-4930-ba32-0a287cd1710e" d="M485.51,368.37c0.17-1.72,2-2.17,3.62-2.17,2,0,3.49.77,3.49,2.58v3.57a12.46,12.46,0,0,0,.06,1.39h-1.33a7.85,7.85,0,0,1-.06-1h0a3.4,3.4,0,0,1-3.17,1.29c-1.84,0-3.1-1-3.1-2.37,0-1.53,1.16-2.33,3.73-2.4,1.07,0,1.81,0,2.47,0V369c0-1.39-.87-1.82-2.27-1.82-1,0-1.84.39-1.91,1.19h-1.51m5.69,1.82c-0.48,0-1.17,0-2.26,0-1.48.06-2.45,0.3-2.45,1.36,0,0.73.59,1.43,2,1.43,1.75,0,2.74-.75,2.74-2.5v-0.33Z" transform="translate(-411.75 -176.1)"/><path class="ee822627-1873-4930-ba32-0a287cd1710e" d="M496.7,365.14l1.42-.59v1.92h2.14v1h-2.14v4.18a1,1,0,0,0,1.1,1.2,8.27,8.27,0,0,0,1.09-.09v1a11.47,11.47,0,0,1-1.36.08c-1.43,0-2.24-.46-2.24-2.08v-4.28h-1.89v-1h1.89v-1.33" transform="translate(-411.75 -176.1)"/><path class="ee822627-1873-4930-ba32-0a287cd1710e" d="M502.76,363.29h1.42v1.45h-1.42v-1.45Zm0,3.18h1.42v7.27h-1.42v-7.27Z" transform="translate(-411.75 -176.1)"/><path class="ee822627-1873-4930-ba32-0a287cd1710e" d="M511.53,374c-3,0-4.54-1.42-4.54-3.91s1.51-3.91,4.54-3.91,4.55,1.42,4.55,3.91-1.59,3.91-4.55,3.91m-3-3.91a3,3,0,1,0,3-2.93A2.79,2.79,0,0,0,508.5,370.1Z" transform="translate(-411.75 -176.1)"/><path class="ee822627-1873-4930-ba32-0a287cd1710e" d="M518.82,368.12c0-.55,0-1.07-0.06-1.65h1.33c0,0.36.06,0.78,0.06,1.29h0a3.66,3.66,0,0,1,3.17-1.56,3.2,3.2,0,0,1,3.52,3.42v4.13h-1.42v-4.05a2.25,2.25,0,0,0-2.33-2.5,2.81,2.81,0,0,0-2.88,3.13v3.43h-1.42v-5.62" transform="translate(-411.75 -176.1)"/><path class="40479b26-be3d-4a0f-8a97-fb389483c2de" d="M503.76,207c2.72,20,.2,41.26-0.91,61.11a36.79,36.79,0,0,1-13.07.33c3.25-21.23,7.21-40.2,10.64-60.78a5.37,5.37,0,0,0,3.35-.66" transform="translate(-411.75 -176.1)"/><path class="ee822627-1873-4930-ba32-0a287cd1710e" d="M495.46,193.54c-8.83-.57-13.63,8.32-23.74,4.61-3.06-1.12-5.68-5.64-9.34-6.25-4.53-.76-6.75,2.82-8.95,4.6,1.56,3,7.25,3.82,9.43,7.4L475,250.52c0.82,3.43,1,6.56-.91,9.81a31.12,31.12,0,0,0,4.79,2.92c5.28-19.31,10.82-38.53,16-58.24-2.58.39-2.34,4.41-4,6.29-1.18-3.06-2.24-6.22-3.5-9.22,1.85-4.26,10.72-4.49,8.95,2.64,1.6,1.79,5.32,2.61,7.4.66-0.7-4.94-1.54-11.42-8.17-11.84m-15.21,10.9,6.19,18.22-2.45,8-7.85-25.5A37.93,37.93,0,0,0,480.25,204.44Zm-5.81.88,8.68,28.19-2.47,8.06-10.26-36.25A29.48,29.48,0,0,0,474.44,205.32Zm2.93,47-12.45-48a20.54,20.54,0,0,0,3.67.89l11.16,39.41Zm12.25-40-2.34,7.63-5.4-15.9a34.08,34.08,0,0,0,3.85-1.28Z" transform="translate(-411.75 -176.1)"/><path class="40479b26-be3d-4a0f-8a97-fb389483c2de" d="M448,230.72c1.27,13.93,10.08,25.6,18.29,33.89,3.07,3.1,6.8,5.61,7.94,9.54-0.22,1.67-4.57-.14-3.89,2.3,0.72,1.64,3.71-.41,5.3-0.18,0.92-4.16,2-7,2.62-11.36-14-7.14-25.33-22.47-23.64-42.09,0.64-7.46,3.61-13,7-18.75-0.06-1.07-3.43-3.24-5.84-4.28-5.38,8.8-8.85,19.19-7.78,30.93" transform="translate(-411.75 -176.1)"/><path class="40479b26-be3d-4a0f-8a97-fb389483c2de" d="M477.12,276.85c6.47,4.07,10.51-2.06,11.23-6.95,0,0-2.4.59-8.39-4.37l-2.84,11.32" transform="translate(-411.75 -176.1)"/><path class="40479b26-be3d-4a0f-8a97-fb389483c2de" d="M496.19,206c-5.37,19.36-10.86,38.29-15.91,57.94,2.46,1.86,4,3.38,8.18,4.28,3.65-20.38,7.12-40.13,10.36-60.86-1.2-.08-1.6-0.57-2.62-1.36" transform="translate(-411.75 -176.1)"/><path class="ee822627-1873-4930-ba32-0a287cd1710e" d="M494.75,279.6a1.27,1.27,0,0,1,.46-0.09l0.86,0.48c0.32,0.19.65,0.36,1,.52a4.64,4.64,0,0,0,1,.34,1.44,1.44,0,0,0,.85,0,0.55,0.55,0,0,0,.36-0.37,1.87,1.87,0,0,0,.05-0.55c0-.21,0-0.4,0-0.6a1,1,0,0,1,.1-0.52,0.73,0.73,0,0,1,.51.56,2.74,2.74,0,0,1,.14,1,0.28,0.28,0,0,0,.23-0.18,1.43,1.43,0,0,0,.09-0.36c0-.13,0-0.27,0-0.41a0.93,0.93,0,0,1,.1-0.36,1.08,1.08,0,0,1,.42-0.39,1.75,1.75,0,0,1,.57-0.24,1.64,1.64,0,0,0,.06.44c0,0.14.08,0.27,0.12,0.39s0.08,0.24.11,0.35a0.43,0.43,0,0,1,0,.28,0.84,0.84,0,0,1-.24.38l-0.35.3-0.32.26a0.36,0.36,0,0,0-.14.25,0.23,0.23,0,0,0,.21.08,0.82,0.82,0,0,0,.21-0.1l0.24-.15a0.46,0.46,0,0,1,.28-0.06,1.13,1.13,0,0,1-.32.82,1.32,1.32,0,0,1-.7.35,1.49,1.49,0,0,1-.78-0.08,1,1,0,0,1-.56-0.5,3.59,3.59,0,0,0,.78-0.12,1.34,1.34,0,0,0,.62-0.49,1.52,1.52,0,0,0,.3-0.68,2.42,2.42,0,0,1,.26-0.74,0.24,0.24,0,0,0-.2.15c-0.05.1-.11,0.23-0.17,0.36l-0.17.42a1.08,1.08,0,0,1-.17.31,1.59,1.59,0,0,1-.44.36,2.33,2.33,0,0,1-.57.24,2.8,2.8,0,0,1-.61.09,1.71,1.71,0,0,1-.54-0.06,13,13,0,0,1,1.68,1.39,11.44,11.44,0,0,1,1,1.17q0.42,0.55.75,1.06a12.68,12.68,0,0,0,.8,1.08,1,1,0,0,0,.57.37,1.39,1.39,0,0,0,.64,0,1.67,1.67,0,0,0,.6-0.27,2.07,2.07,0,0,0,.46-0.44,1.8,1.8,0,0,1-.13,1.23,1.1,1.1,0,0,1-.68.54,1.19,1.19,0,0,1-.88-0.17,1.8,1.8,0,0,1-.73-0.86,9.6,9.6,0,0,1,.16,1.2,8.16,8.16,0,0,0,.17,1.18,0.76,0.76,0,0,1,.64.14c0.16,0.14.32,0.29,0.48,0.45a2.62,2.62,0,0,0,.51.4,0.84,0.84,0,0,0,.74,0,0.47,0.47,0,0,1,0,.29,0.42,0.42,0,0,1-.12.22l-0.2.15-0.2.12a2.07,2.07,0,0,1,.83.77,2.59,2.59,0,0,1,.36,1,2.91,2.91,0,0,1-.1,1.13,2.69,2.69,0,0,1-.54,1,2.61,2.61,0,0,0-.09-1.8,5.06,5.06,0,0,0-.92-1.41,3.22,3.22,0,0,1-.24.71,0.81,0.81,0,0,1-.52.46,4.25,4.25,0,0,0,0-.73,4.4,4.4,0,0,0-.15-0.71,2,2,0,0,0-.25-0.54,0.52,0.52,0,0,0-.33-0.25,8.58,8.58,0,0,1-.23,1.6,2.36,2.36,0,0,1-.59,1.1s-0.06.06-.09,0a0.12,0.12,0,0,1,0-.08,0.3,0.3,0,0,1,0-.13,0.8,0.8,0,0,1,0-.11,3.63,3.63,0,0,0,.32-1,9.68,9.68,0,0,0,.13-1.21c0-.42,0-0.82,0-1.23s0-.77,0-1.09a0.19,0.19,0,0,0-.23.08,0.72,0.72,0,0,0,0,.29c0,0.12,0,.26,0,0.41a1.29,1.29,0,0,1,0,.41,1.43,1.43,0,0,1-.26.47l-0.36.46a3.15,3.15,0,0,0-.33.56,2,2,0,0,0-.17.75,0.41,0.41,0,0,1-.3-0.21,1.44,1.44,0,0,1-.16-0.43,3.9,3.9,0,0,1-.07-0.54c0-.19,0-0.36,0-0.52a1.72,1.72,0,0,1-.32.46,4.89,4.89,0,0,0-.36.4,1.75,1.75,0,0,0-.28.51,2.12,2.12,0,0,0-.1.76,1.35,1.35,0,0,1-.38-0.45,1.32,1.32,0,0,1-.14-0.49,1.59,1.59,0,0,1,0-.51l0.11-.5a2.18,2.18,0,0,1-.51.4l-0.54.32a2.28,2.28,0,0,0-.48.39,1.4,1.4,0,0,0-.31.63,1.82,1.82,0,0,1-.25-1.15,2.24,2.24,0,0,1,.32-0.85,0.87,0.87,0,0,1,.4-0.34,3.61,3.61,0,0,1,.46-0.15l0.38-.11a0.19,0.19,0,0,0,.14-0.23c0-.08-0.12-0.12-0.34-0.14a2.37,2.37,0,0,1-.64-0.12,1,1,0,0,1-.51-0.37,0.94,0.94,0,0,1,.05-0.86,0.71,0.71,0,0,0,.38.38,1.32,1.32,0,0,0,.58.11,2.46,2.46,0,0,0,1.31-.43,5.09,5.09,0,0,1-.52-0.2,1.8,1.8,0,0,1-.45-0.28,1,1,0,0,1-.27-0.38,0.61,0.61,0,0,1,.05-0.49,2.06,2.06,0,0,0,.33.25,1.44,1.44,0,0,0,.45.18,1.35,1.35,0,0,0,.49,0,0.94,0.94,0,0,0,.48-0.23,1.79,1.79,0,0,1-.68-0.55,1,1,0,0,1-.19-0.71,1.48,1.48,0,0,0,.59.23l0.65,0.08a3.82,3.82,0,0,1,.61.1,1,1,0,0,1,.49.28,2.89,2.89,0,0,0-.45-1.28,6.79,6.79,0,0,0-1-1.23,12.16,12.16,0,0,0-1.33-1.15q-0.73-.55-1.49-1c-0.5-.3-1-0.57-1.45-0.79a13,13,0,0,0-1.23-.52l0.42-.2m8.33,10.19a3.18,3.18,0,0,0,.49.58,7.31,7.31,0,0,0,.62.54,2.59,2.59,0,0,1,.51.51,0.86,0.86,0,0,0-.23-0.54,7.14,7.14,0,0,0-.54-0.56l-0.59-.58a2.26,2.26,0,0,1-.42-0.57A0.91,0.91,0,0,0,503.09,289.79Zm-1.77,4.57a6.63,6.63,0,0,0,.5-1.14,1.81,1.81,0,0,1,.61.42,1.28,1.28,0,0,1,.29.51,1.16,1.16,0,0,1,0,.51,1.4,1.4,0,0,1-.14.43,1.35,1.35,0,0,1-.29.36,2.23,2.23,0,0,1-.41.3,4,4,0,0,1-.43.22,1.42,1.42,0,0,1-.33.11,2.61,2.61,0,0,0-.27-0.34,2.66,2.66,0,0,0-.32-0.32A4.76,4.76,0,0,0,501.32,294.35Zm0,0.88a0.1,0.1,0,0,0-.14.08,0.1,0.1,0,0,0,0,.15l0.06,0a0.1,0.1,0,0,0,.14-0.08,0.09,0.09,0,0,0-.06-0.13l-0.06,0v0Zm2.07-8.27a1.06,1.06,0,0,0,.65,0,1.18,1.18,0,0,0,.52-0.34,0.83,0.83,0,0,0,.23-0.54,2,2,0,0,1-.92.71,1.37,1.37,0,0,1-1.09-.31A1.19,1.19,0,0,0,503.35,287Zm-3.52,8.43a1.1,1.1,0,0,1,.5.23,1,1,0,0,1,.32.43,0.53,0.53,0,0,1,0,.49,1.06,1.06,0,0,0-.42-0.78,1.61,1.61,0,0,0-.85-0.26A0.61,0.61,0,0,1,499.83,295.39Zm-1.54,1.11a4.66,4.66,0,0,0,.6-0.39,2.48,2.48,0,0,1,.53-0.32,0.55,0.55,0,0,1,.59.23,0.77,0.77,0,0,1,.26.48,0.86,0.86,0,0,1-.09.43,1.84,1.84,0,0,1-.29.4,2.33,2.33,0,0,0-.29.39,0.78,0.78,0,0,0-.11.4,0.68,0.68,0,0,0,.25.44,0.49,0.49,0,0,1-.69-0.51,2.52,2.52,0,0,1,0-.45,0.21,0.21,0,0,0-.07-0.26,0.1,0.1,0,0,0-.13.07,2.46,2.46,0,0,0-.1.26l-0.12.34a0.87,0.87,0,0,1-.15.29,1.18,1.18,0,0,1-.48.48l-0.58.28a1.31,1.31,0,0,1,0-.72,1.91,1.91,0,0,1,.29-0.56,1,1,0,0,1,.24-0.22l0.3-.18,0.27-.15a0.14,0.14,0,0,0,.1-0.14s-0.07,0-.19,0a2.44,2.44,0,0,1-.4,0,1,1,0,0,1-.4-0.13,0.5,0.5,0,0,1-.22-0.41A1,1,0,0,0,498.29,296.5Zm2.19-3.55a1,1,0,0,1,1,.18l-0.5,1-0.5,1a1.36,1.36,0,0,0-.36-0.18,1.93,1.93,0,0,0-.39-0.1,0.67,0.67,0,0,1-.14-0.29,1.8,1.8,0,0,1-.06-0.39,1.49,1.49,0,0,1,0-.39,0.69,0.69,0,0,1,.13-0.28A1.75,1.75,0,0,1,500.48,292.95ZM500,294.59a0.13,0.13,0,0,0,.23.09l0,0a0.09,0.09,0,0,0-.06-0.13,0.1,0.1,0,0,0-.15,0Zm1-5.23c0.14-.25.3-0.49,0.45-0.74a8.3,8.3,0,0,0,.42-0.73,1.45,1.45,0,0,0,.17-0.68,5.64,5.64,0,0,1-.5.74c-0.18.23-.33,0.44-0.47,0.66a2.66,2.66,0,0,0-.31.67,1.54,1.54,0,0,0,0,.78A1.84,1.84,0,0,1,500.92,289.35Zm-2,0c0.45-.22.89-0.47,1.34-0.76a5.71,5.71,0,0,0,1.16-1,1.56,1.56,0,0,0,.44-1.23,2,2,0,0,1-.47.85,5.57,5.57,0,0,1-.83.74c-0.32.23-.64,0.45-1,0.65l-0.89.56a5.55,5.55,0,0,0-.61.43c-0.15.13-.19,0.23-0.14,0.31A4.4,4.4,0,0,1,498.89,289.33Zm1.61-2.09a1.37,1.37,0,0,0,.66-0.32,1.34,1.34,0,0,0,.38-0.57,1,1,0,0,0,0-.68,3.26,3.26,0,0,1-.21.59,1.3,1.3,0,0,1-.34.43,1.81,1.81,0,0,1-.53.3,3.41,3.41,0,0,1-.78.18A1.56,1.56,0,0,0,500.49,287.23Z" transform="translate(-411.75 -176.1)"/><path class="ee822627-1873-4930-ba32-0a287cd1710e" d="M507.13,285.81a2.81,2.81,0,0,0,1.18-1.83,1.93,1.93,0,0,0-.85-1.83,21.72,21.72,0,0,0-6.66-1.11,23.86,23.86,0,0,1-6.74-.83v-0.49a1.68,1.68,0,0,1,.5-0.4q5.29,1.31,7.37.52l0,0.07a18.4,18.4,0,0,0,3.9-.37,6.48,6.48,0,0,0,3.59-2.49q0.7-1.62.16-2.16c-0.36-.37-0.73-0.72-1.12-1.06a1.69,1.69,0,0,1-.62-1.53c0.08-.22.19-0.57,0.33-1a1.58,1.58,0,0,0,1,1.13,5.61,5.61,0,0,0,1,.2,5.5,5.5,0,0,1,1,.21,1.74,1.74,0,0,1,1,.86,2.9,2.9,0,0,1,0,2.17,10.05,10.05,0,0,1-2.79,3.2h0.68a18.43,18.43,0,0,0,3.19-.88,6,6,0,0,0,2.69-2.5,4.31,4.31,0,0,0,.26-2.81,1.22,1.22,0,0,1,1.51.22,2.64,2.64,0,0,1-.08,2.55,3.4,3.4,0,0,1-.35.57,28.82,28.82,0,0,0,2.57-2,5.42,5.42,0,0,0,1.69-2.85q0.3-2.16-1.19-2.92T518,270.11a1.39,1.39,0,0,1-.57-1.56,3.48,3.48,0,0,1,1.78-2,5.34,5.34,0,0,1,1.55-.25,3.39,3.39,0,0,0-2.07-2.32,2.52,2.52,0,0,0-1-.13,1,1,0,0,0-.81.4,2.44,2.44,0,0,1,.36-1.63,4.28,4.28,0,0,1,2,.08,0.5,0.5,0,0,0,.15-0.29,3.74,3.74,0,0,0-2.12-1.3,1.09,1.09,0,0,1,.7-1c0.26,0.09.66,0.21,1.19,0.34a6.73,6.73,0,0,1,0-3.61,3.35,3.35,0,0,1,.79-1.27,0.67,0.67,0,0,1,.73-0.14q-1,3,.67,4.67a0.24,0.24,0,0,0,.23.08,4.86,4.86,0,0,1,.65-2.36,0.69,0.69,0,0,1,.89-0.25l0.36,0.23a3.81,3.81,0,0,0,0,3.71,3,3,0,0,1,.33.52q0.55-1.43,1.21-2.9a2.66,2.66,0,0,1,1.76-1.7l-0.3,1.44-0.62,4.84a18.65,18.65,0,0,1-.69,3.21q1.39-.63,2,0.15l0.18,0.68A12.73,12.73,0,0,0,525,270l-3.26,4a13.76,13.76,0,0,1-6.28,4.27,60.81,60.81,0,0,1-6.75,1.65,5,5,0,0,1,.89.47q3.4,1.88,4.39,1.81a1.07,1.07,0,0,1-1,.78l-1.07,0,0.55,0.34a12,12,0,0,1,1.28,1.83,3.22,3.22,0,0,0,1.41,1.46,1.65,1.65,0,0,0,1.25-.13,3.3,3.3,0,0,1-1.39,1.52,3.23,3.23,0,0,1-3.63-1.29,17.64,17.64,0,0,0-1.11-2.17l-0.11,0a2.29,2.29,0,0,1-1.37,1.69l-0.84.19-0.86-.62M523.81,270q1.41-4.81-1.28-8.2A12.17,12.17,0,0,1,523.81,270Zm1.05-3.5a5.67,5.67,0,0,0,.15-3.16A20.91,20.91,0,0,1,524.86,266.5Zm-1.81,4.27a11.46,11.46,0,0,0,.46-2.36,8.51,8.51,0,0,0-1.28-4.69,28.93,28.93,0,0,1-2.2-4.08,4.8,4.8,0,0,0,.58,1.82,32.4,32.4,0,0,1,2.08,4.21A8.3,8.3,0,0,1,523.05,270.77Zm-0.95,1.13c0.11-.29.23-0.7,0.37-1.22a6,6,0,0,0-1.68-6.59A7.94,7.94,0,0,1,522.1,271.9Zm-7.73,15.28a4.82,4.82,0,0,1-2.24-2.17,15.3,15.3,0,0,0-1.9-2.68,14,14,0,0,0-3-1.6,9.47,9.47,0,0,1,3.51,1.1,4.94,4.94,0,0,0-1.78-1.08,4.67,4.67,0,0,0-3.6.12,7,7,0,0,1,4.44,3.12,5.13,5.13,0,0,0-2-2.57,4.29,4.29,0,0,1,2.31,1.37,13.45,13.45,0,0,1,1.84,2.52A3.64,3.64,0,0,0,514.37,287.18Zm4.35-28.8a3.35,3.35,0,0,1,.48-3.45q1.17-1.85,2.72-1.68a1.9,1.9,0,0,1,1.45.78,1.32,1.32,0,0,1-.07,1.07,0.85,0.85,0,0,1-.61.65,4.79,4.79,0,0,0-2.18-.84,1.92,1.92,0,0,0-1.32,1.14A5.53,5.53,0,0,0,518.73,258.38Z" transform="translate(-411.75 -176.1)"/><path class="ee822627-1873-4930-ba32-0a287cd1710e" d="M461.19,279.8a13.26,13.26,0,0,0-1.23.52c-0.47.22-.95,0.49-1.45,0.79s-1,.64-1.49,1a12.23,12.23,0,0,0-1.33,1.15,6.8,6.8,0,0,0-1,1.23,2.88,2.88,0,0,0-.44,1.28,1,1,0,0,1,.49-0.28,3.9,3.9,0,0,1,.61-0.1l0.65-.08a1.48,1.48,0,0,0,.59-0.23,1,1,0,0,1-.19.71,1.79,1.79,0,0,1-.68.55,0.93,0.93,0,0,0,.48.23,1.34,1.34,0,0,0,.49,0,1.44,1.44,0,0,0,.45-0.18,2.13,2.13,0,0,0,.34-0.25,0.61,0.61,0,0,1,.05.49,1,1,0,0,1-.27.38,1.82,1.82,0,0,1-.46.28,5.17,5.17,0,0,1-.52.2,2.45,2.45,0,0,0,1.31.43,1.31,1.31,0,0,0,.58-0.11,0.7,0.7,0,0,0,.38-0.38,0.93,0.93,0,0,1,.05.86,1,1,0,0,1-.51.37,2.38,2.38,0,0,1-.64.12c-0.21,0-.32.05-0.34,0.14a0.19,0.19,0,0,0,.13.23l0.38,0.11a3.77,3.77,0,0,1,.46.15,0.88,0.88,0,0,1,.4.34,2.24,2.24,0,0,1,.32.85,1.8,1.8,0,0,1-.25,1.15,1.38,1.38,0,0,0-.31-0.63,2.33,2.33,0,0,0-.48-0.39l-0.54-.32a2.18,2.18,0,0,1-.5-0.4l0.11,0.5a1.65,1.65,0,0,1,0,.51,1.32,1.32,0,0,1-.14.49,1.37,1.37,0,0,1-.38.45,2.15,2.15,0,0,0-.1-0.76,1.75,1.75,0,0,0-.28-0.51,4.73,4.73,0,0,0-.36-0.4,1.67,1.67,0,0,1-.32-0.46c0,0.15,0,.33,0,0.52a4.06,4.06,0,0,1-.07.54,1.41,1.41,0,0,1-.16.43,0.42,0.42,0,0,1-.3.21,1.91,1.91,0,0,0-.17-0.75,3.21,3.21,0,0,0-.33-0.56l-0.36-.46a1.43,1.43,0,0,1-.26-0.47,1.26,1.26,0,0,1,0-.41c0-.15,0-0.29,0-0.41a0.74,0.74,0,0,0,0-.29,0.19,0.19,0,0,0-.23-0.08c0,0.32,0,.68,0,1.09s0,0.81,0,1.23a10.28,10.28,0,0,0,.13,1.21,3.66,3.66,0,0,0,.32,1,0.67,0.67,0,0,1,0,.11,0.32,0.32,0,0,1,0,.13,0.12,0.12,0,0,1,0,.08s-0.05,0-.09,0a2.36,2.36,0,0,1-.59-1.1,8.42,8.42,0,0,1-.23-1.6,0.52,0.52,0,0,0-.34.25,2,2,0,0,0-.25.54,4.1,4.1,0,0,0-.15.71,4.46,4.46,0,0,0,0,.73,0.81,0.81,0,0,1-.52-0.46,3.22,3.22,0,0,1-.24-0.71,5.13,5.13,0,0,0-.92,1.41,2.63,2.63,0,0,0-.09,1.8,2.67,2.67,0,0,1-.54-1,2.87,2.87,0,0,1-.1-1.13,2.56,2.56,0,0,1,.36-1,2.09,2.09,0,0,1,.83-0.77l-0.19-.12a1.41,1.41,0,0,1-.2-0.15,0.44,0.44,0,0,1-.12-0.22,0.47,0.47,0,0,1,0-.29,0.85,0.85,0,0,0,.74,0,2.71,2.71,0,0,0,.5-0.4c0.16-.16.32-0.31,0.48-0.45a0.76,0.76,0,0,1,.64-0.14,8,8,0,0,0,.17-1.18,9.6,9.6,0,0,1,.16-1.2,1.8,1.8,0,0,1-.73.86,1.19,1.19,0,0,1-.88.17,1.1,1.1,0,0,1-.68-0.54,1.8,1.8,0,0,1-.14-1.23,2.05,2.05,0,0,0,.46.44,1.66,1.66,0,0,0,.6.27,1.39,1.39,0,0,0,.63,0,1,1,0,0,0,.57-0.37,12.91,12.91,0,0,0,.8-1.08q0.34-.51.75-1.06a11.77,11.77,0,0,1,1-1.17,13.22,13.22,0,0,1,1.68-1.39,1.7,1.7,0,0,1-.54.06,2.76,2.76,0,0,1-.6-0.09,2.31,2.31,0,0,1-.57-0.24,1.61,1.61,0,0,1-.44-0.36,1.11,1.11,0,0,1-.17-0.31l-0.17-.42c-0.06-.14-0.12-0.26-0.17-0.36a0.24,0.24,0,0,0-.2-0.15,2.5,2.5,0,0,1,.25.74,1.52,1.52,0,0,0,.3.68,1.32,1.32,0,0,0,.62.49,3.59,3.59,0,0,0,.78.12,1,1,0,0,1-.55.5,1.49,1.49,0,0,1-.78.08,1.32,1.32,0,0,1-.7-0.35,1.12,1.12,0,0,1-.32-0.82,0.46,0.46,0,0,1,.28.06l0.24,0.15a0.78,0.78,0,0,0,.21.1,0.23,0.23,0,0,0,.21-0.08,0.36,0.36,0,0,0-.15-0.25l-0.32-.26-0.36-.3a0.85,0.85,0,0,1-.24-0.38,0.43,0.43,0,0,1,0-.28l0.11-.35c0-.12.08-0.25,0.12-0.39a1.56,1.56,0,0,0,.06-0.44,1.76,1.76,0,0,1,.57.24,1.07,1.07,0,0,1,.41.39,0.91,0.91,0,0,1,.1.36c0,0.14,0,.28,0,0.41a1.42,1.42,0,0,0,.09.36,0.27,0.27,0,0,0,.23.18,2.7,2.7,0,0,1,.14-1,0.73,0.73,0,0,1,.51-0.56,1,1,0,0,1,.1.52c0,0.2,0,.4,0,0.6a1.84,1.84,0,0,0,.05.55,0.56,0.56,0,0,0,.36.37,1.44,1.44,0,0,0,.85,0,4.59,4.59,0,0,0,1-.34c0.33-.16.66-0.33,1-0.52l0.86-.48a1.27,1.27,0,0,1,.46.09l0.42,0.2m-8.6,9.37a2.32,2.32,0,0,1-.42.57l-0.59.58a6.89,6.89,0,0,0-.53.56,0.86,0.86,0,0,0-.23.54,2.63,2.63,0,0,1,.51-0.51,7.49,7.49,0,0,0,.62-0.54,3.18,3.18,0,0,0,.49-0.58A0.92,0.92,0,0,0,452.6,289.17Zm2.38,6.26a2.66,2.66,0,0,0-.32.32,2.58,2.58,0,0,0-.26.34,1.37,1.37,0,0,1-.33-0.11,3.8,3.8,0,0,1-.43-0.22,2.19,2.19,0,0,1-.41-0.3,1.37,1.37,0,0,1-.29-0.36,1.45,1.45,0,0,1-.14-0.43,1.17,1.17,0,0,1,0-.51,1.3,1.3,0,0,1,.29-0.51,1.81,1.81,0,0,1,.61-0.42,6.47,6.47,0,0,0,.5,1.14A4.73,4.73,0,0,0,455,295.43Zm-0.72-.18-0.06,0a0.09,0.09,0,0,0-.06.13,0.1,0.1,0,0,0,.14.08l0.06,0a0.13,0.13,0,0,0-.09-0.23v0Zm-1.47-8.76a1.36,1.36,0,0,1-1.09.31,2,2,0,0,1-.92-0.71,0.82,0.82,0,0,0,.23.54,1.18,1.18,0,0,0,.52.34,1.06,1.06,0,0,0,.65,0A1.18,1.18,0,0,0,452.79,286.49Zm3.41,9a1.62,1.62,0,0,0-.85.26,1.05,1.05,0,0,0-.42.78,0.52,0.52,0,0,1,0-.49,1,1,0,0,1,.32-0.43,1.11,1.11,0,0,1,.5-0.23A0.61,0.61,0,0,1,456.2,295.49Zm1.85,1a0.51,0.51,0,0,1-.23.41,1,1,0,0,1-.4.13,2.44,2.44,0,0,1-.4,0c-0.12,0-.19,0-0.19,0a0.14,0.14,0,0,0,.1.14l0.27,0.15,0.3,0.18a1,1,0,0,1,.24.22,1.93,1.93,0,0,1,.29.56,1.31,1.31,0,0,1,0,.72l-0.58-.28a1.16,1.16,0,0,1-.48-0.48,0.89,0.89,0,0,1-.15-0.29l-0.12-.34a1.81,1.81,0,0,0-.1-0.26,0.1,0.1,0,0,0-.13-0.07,0.21,0.21,0,0,0-.07.26,2.72,2.72,0,0,1,0,.45,0.59,0.59,0,0,1-.13.4,0.6,0.6,0,0,1-.56.11,0.67,0.67,0,0,0,.25-0.44,0.78,0.78,0,0,0-.1-0.4,2.34,2.34,0,0,0-.29-0.39,1.91,1.91,0,0,1-.28-0.4,0.84,0.84,0,0,1-.09-0.43,0.77,0.77,0,0,1,.26-0.48,0.55,0.55,0,0,1,.59-0.23,2.56,2.56,0,0,1,.53.32,4.4,4.4,0,0,0,.6.39A1,1,0,0,0,458.06,296.51Zm-2.18-3a0.65,0.65,0,0,1,.13.28,1.41,1.41,0,0,1,0,.39,1.74,1.74,0,0,1-.05.39,0.68,0.68,0,0,1-.14.29,1.92,1.92,0,0,0-.4.1,1.31,1.31,0,0,0-.36.18l-0.49-1-0.5-1a1,1,0,0,1,1-.18A1.74,1.74,0,0,1,455.88,293.53Zm-0.34,1a0.1,0.1,0,0,0-.15,0,0.09,0.09,0,0,0-.06.13v0a0.1,0.1,0,0,0,.15,0,0.1,0.1,0,0,0,.08-0.14ZM454.86,290a1.57,1.57,0,0,0,0-.78,2.7,2.7,0,0,0-.31-0.67c-0.14-.21-0.29-0.43-0.47-0.66a5.85,5.85,0,0,1-.5-0.74,1.46,1.46,0,0,0,.17.68c0.12,0.24.26,0.49,0.42,0.73s0.31,0.49.46,0.74A1.85,1.85,0,0,1,454.86,290Zm2.76-.11c0.06-.08,0-0.19-0.14-0.31a5.34,5.34,0,0,0-.61-0.43l-0.89-.56c-0.33-.21-0.66-0.42-1-0.65a5.47,5.47,0,0,1-.83-0.74,2,2,0,0,1-.47-0.85,1.56,1.56,0,0,0,.44,1.23,5.76,5.76,0,0,0,1.17,1c0.45,0.28.89,0.53,1.34,0.76A4.39,4.39,0,0,1,457.63,289.94Zm-1.74-2.78a3.44,3.44,0,0,1-.79-0.18,1.83,1.83,0,0,1-.53-0.3,1.32,1.32,0,0,1-.34-0.43,3.26,3.26,0,0,1-.21-0.59,1,1,0,0,0,0,.68,1.34,1.34,0,0,0,.37.57,1.39,1.39,0,0,0,.66.32A1.56,1.56,0,0,0,455.89,287.16Z" transform="translate(-411.75 -176.1)"/><path class="ee822627-1873-4930-ba32-0a287cd1710e" d="M447.55,286.43l-0.84-.19a2.29,2.29,0,0,1-1.37-1.69l-0.11,0a18,18,0,0,0-1.11,2.17,3.23,3.23,0,0,1-3.63,1.29,3.29,3.29,0,0,1-1.38-1.52,1.65,1.65,0,0,0,1.25.13,3.21,3.21,0,0,0,1.41-1.46,11.71,11.71,0,0,1,1.28-1.83l0.55-.34-1.07,0a1.07,1.07,0,0,1-1-.78q1,0.07,4.4-1.81a4.94,4.94,0,0,1,.89-0.47,60.77,60.77,0,0,1-6.75-1.65,13.75,13.75,0,0,1-6.28-4.27l-3.26-4a12.79,12.79,0,0,0-2.35-2.26l0.18-.68q0.59-.78,2-0.15a18.82,18.82,0,0,1-.69-3.21l-0.62-4.84-0.3-1.44a2.65,2.65,0,0,1,1.76,1.7q0.66,1.46,1.21,2.9a3.08,3.08,0,0,1,.33-0.52,3.81,3.81,0,0,0,0-3.71l0.36-.23a0.69,0.69,0,0,1,.89.25,4.89,4.89,0,0,1,.65,2.36,0.24,0.24,0,0,0,.23-0.08q1.71-1.64.67-4.67a0.68,0.68,0,0,1,.73.14,3.37,3.37,0,0,1,.79,1.27,6.73,6.73,0,0,1,0,3.61c0.53-.13.93-0.25,1.19-0.34a1.09,1.09,0,0,1,.7,1,3.74,3.74,0,0,0-2.12,1.3,0.5,0.5,0,0,0,.15.29,4.28,4.28,0,0,1,2-.08,2.44,2.44,0,0,1,.37,1.63,1,1,0,0,0-.81-0.4,2.51,2.51,0,0,0-1,.13,3.38,3.38,0,0,0-2.08,2.32,5.36,5.36,0,0,1,1.55.25,3.49,3.49,0,0,1,1.78,2,1.39,1.39,0,0,1-.57,1.56q-0.92-2.49-2.31-1.68T434,271.36a5.4,5.4,0,0,0,1.69,2.85,29.06,29.06,0,0,0,2.57,2,3.49,3.49,0,0,1-.35-0.57,2.64,2.64,0,0,1-.08-2.55,1.22,1.22,0,0,1,1.51-.22,4.32,4.32,0,0,0,.25,2.81,6,6,0,0,0,2.69,2.5,18.56,18.56,0,0,0,3.19.88h0.68a10,10,0,0,1-2.79-3.2,2.89,2.89,0,0,1,0-2.17,1.75,1.75,0,0,1,1-.86,5.44,5.44,0,0,1,1-.21,5.64,5.64,0,0,0,1-.2,1.58,1.58,0,0,0,1-1.12c0.14,0.46.25,0.8,0.32,1a1.7,1.7,0,0,1-.62,1.53c-0.39.34-.76,0.69-1.12,1.06s-0.3,1.09.17,2.16a6.49,6.49,0,0,0,3.6,2.49,18.4,18.4,0,0,0,3.9.37l0-.07q2.08,0.79,7.38-.52a1.69,1.69,0,0,1,.5.4l0,0.49a23.87,23.87,0,0,1-6.74.83,21.71,21.71,0,0,0-6.66,1.11,1.93,1.93,0,0,0-.85,1.83,2.81,2.81,0,0,0,1.18,1.83l-0.86.62M433,261.8q-2.69,3.39-1.28,8.2A12.16,12.16,0,0,1,433,261.8Zm-2.48,1.54a5.68,5.68,0,0,0,.15,3.16A20.88,20.88,0,0,1,430.52,263.34Zm2.31,2.33a32.94,32.94,0,0,1,2.08-4.21,4.75,4.75,0,0,0,.58-1.82,29,29,0,0,1-2.19,4.08,8.52,8.52,0,0,0-1.28,4.69,11.6,11.6,0,0,0,.46,2.36A8.3,8.3,0,0,1,432.83,265.67Zm1.91-1.59a6,6,0,0,0-1.68,6.59c0.14,0.53.27,0.94,0.37,1.22A7.93,7.93,0,0,1,434.74,264.08Zm8.76,21.22a13.52,13.52,0,0,1,1.84-2.52,4.3,4.3,0,0,1,2.31-1.37,5.14,5.14,0,0,0-2,2.57,6.94,6.94,0,0,1,4.44-3.12,4.66,4.66,0,0,0-3.6-.12,4.94,4.94,0,0,0-1.78,1.08,9.47,9.47,0,0,1,3.51-1.1,14,14,0,0,0-3,1.6,15.41,15.41,0,0,0-1.9,2.68,4.81,4.81,0,0,1-2.23,2.17A3.64,3.64,0,0,0,443.5,285.31ZM436.34,256A1.92,1.92,0,0,0,435,254.9a4.79,4.79,0,0,0-2.18.84,0.85,0.85,0,0,1-.61-0.65,1.33,1.33,0,0,1-.07-1.07,1.91,1.91,0,0,1,1.45-.78q1.55-.17,2.71,1.68a3.35,3.35,0,0,1,.49,3.45A5.5,5.5,0,0,0,436.34,256Z" transform="translate(-411.75 -176.1)"/></svg>