<svg id="1f792e7b-9c0f-4e8f-8c56-a0bd9c437bfb" data-name="Layer 1" xmlns="http://www.w3.org/2000/svg" viewBox="0 0 431.57 97.58"><defs><style>.\38 5932dea-21a7-482b-aaf2-be8f18029544,.\39 d71d192-8fc2-4837-bd8c-556eba579603{fill:#b2b248;}.\39 d71d192-8fc2-4837-bd8c-556eba579603{fill-rule:evenodd;}</style></defs><title>cma_logo_1</title><path class="9d71d192-8fc2-4837-bd8c-556eba579603" d="M45.61,244.86c0.4,2.73.89,7,1.18,9.73,0.74,7.29.3,13.53,0,20.79-0.29,6.89-.49,13.13-1.38,20-0.37,2.82-.81,5.75-1.18,8.57-0.15,1.15-.76,1.46-2.07,1.67a31.86,31.86,0,0,1-12.42-.27c1-5,2-9.86,3-14.74q4.3-21.33,8.6-42.67c0.19-.94.2-2.48,0.66-2.62C43.24,244.93,43.21,245.21,45.61,244.86Z" transform="translate(31.88 -229.37)"/><path class="9d71d192-8fc2-4837-bd8c-556eba579603" d="M287.52,274.19c1.48,0.2,4.34.1,6.11,0.37a6.18,6.18,0,0,1,2.82,1.27,3.66,3.66,0,0,1-2,.89,76.06,76.06,0,0,1-13.73.58c-0.81-.05-2.56-0.1-1.48-0.64,0.56-.48.66-0.41,1.11-0.76a39.44,39.44,0,0,0,4.47-3.57c2-2.14,1.87-5.22-1-7.19-3.06-2.11-5.12-1.58-6.64-.43a5.67,5.67,0,0,0-1.88,1.76c-0.46.56-.13,1.2-0.23,2-0.13,1-.13,2.48-0.16,3.47-0.59,4-2.66,5.91-7.56,6,0-3,.1-6.11-0.06-9.17-0.06-1.06.17-2.12-.81-3.11s-2.63-1.76-4-1.18-2.16.93-2.22,2.41c-0.09,2.44,0,5.66.06,8.1,0,1.12-.12,1.32-1.2,1.61-0.33.09-2,.73-4.14,1.48s-1.95.2-2-1.88c0-2.74-.11-5.48,0-8.21a2.32,2.32,0,0,0-2-2.62c-0.83-.16-1.48-0.25-2.56-0.44a13,13,0,0,0-1.82-.1c1.09-1.32,9.55-3.7,13-3.69a16.18,16.18,0,0,0,.64,2.17c0.52,0.67,1.08.24,2.81-.35,0.93-.32,2.46-0.88,3.4-1.18a6.86,6.86,0,0,1,6.74,1.19,3,3,0,0,0,1.64.93c0.55,0,1.59-.77,2.22-0.94,1.79-.47,3.26-1.09,5.07-1.48a14.45,14.45,0,0,1,4.73-.3,8.49,8.49,0,0,1,3.5,1.08c3.31,1.76,3.84,5.06,1.43,7.93-0.41.48-1,.9-1.43,1.38C289.7,272.29,288.19,273.39,287.52,274.19Z" transform="translate(31.88 -229.37)"/><path class="9d71d192-8fc2-4837-bd8c-556eba579603" d="M36.64,244.14c2.76,0.82,2.86.69,2.56,1.08-3.63,17.8-7.39,36.2-11,54-0.12.57-.48,4.52-0.89,4.93-0.59.59-.63,0.79-3.05,0.2a14.32,14.32,0,0,1-2.46-1,9.37,9.37,0,0,1-3.35-2.46c-0.59-.59,1-3.9,1.48-5.32,5.54-17.1,9.24-28.91,14.78-46C34.88,248.91,36.39,244.77,36.64,244.14Z" transform="translate(31.88 -229.37)"/><path class="9d71d192-8fc2-4837-bd8c-556eba579603" d="M167.26,270.25a2.18,2.18,0,0,1,1.5-1.58,21.05,21.05,0,0,1,4.63-1.48,13.17,13.17,0,0,1,3.3-.44c2.76,0,4.73,1.09,5.32,2.83s-0.63,3.62-2.46,4.85c-3.27,2.21-7,2.91-10.31,3.42a27.39,27.39,0,0,1-9.34-.37c-3.85-1-5.48-1.74-6.5-5.22a5.66,5.66,0,0,1,0-2.66c0.84-1.82,1.14-1.45,2.51-3,0.28-.31,1.92-1.36,2.61-2.12,0.3-.33-0.1-0.45,0-0.69-2.58,0-4.32,0-6.9,0-0.07-.22-1.26,0-1.33-0.2a4.06,4.06,0,0,1,3.05-1.58c2.82-.36,5.93-0.19,8.76-0.44a14.67,14.67,0,0,0,2.4-.38c1.55-.41,2.16-1.07,1.94-2.13-0.06-.3-0.83-0.7-1-1.13a1.31,1.31,0,0,1,.34-1.13c0.69-.69,1.69-0.56,2.41-0.69A20.4,20.4,0,0,1,172,256c1.69,0,1.73,1.47.6,2.77-0.34.39-.77,0.51-1.13,0.89s-1.11,1-.84,1.63c3.18,0,6.39-.25,9.61-0.25a6.54,6.54,0,0,1-4.73,2.22c-3.31.22-6.3-.09-9.6,0.15a5.68,5.68,0,0,0-5,3.89,5.05,5.05,0,0,0,1.57,5.45A11.47,11.47,0,0,0,173.33,275c2.19-.55,3.39-1.81,3-3.2-0.48-1.73-2.23-2.68-4.32-2.23-1.5.32-3,.8-4.46,1.2Z" transform="translate(31.88 -229.37)"/><path class="9d71d192-8fc2-4837-bd8c-556eba579603" d="M314.1,265.42c4.19-2,8.05-4,12.72-4.62,0.16,5.06.39,10.12,0.49,14.93a1.83,1.83,0,0,1-1,1.13,24.09,24.09,0,0,1-3.74,1.28c-0.64.16-.79-0.15-2.07,0-0.39.06,0-.57-0.25-1.08s-0.39-1.63-1.08-1.43c-0.42.12-1.66,0.59-2.17,0.74a26.66,26.66,0,0,1-10.74,1.53,15.09,15.09,0,0,1-3.35-.59c-2.48-.55-4.51-1.81-5.27-4.48s0.39-4.48,2.2-6.43c0.62-.67,1.79-1.36,2.29-2.49a27.47,27.47,0,0,0-4-.35c2.22-2.46,9.24-2.8,12.46-1.53-1.21.87-3.13,1.58-4.09,2.61a7,7,0,0,0-2,3,4.86,4.86,0,0,0,2.66,6.16,17.39,17.39,0,0,0,9.21,1c1.3-.2,3.35-1.08,3.55-2.71,0-3.89-.59-5.91-2.76-6.35A26.62,26.62,0,0,1,314.1,265.42Z" transform="translate(31.88 -229.37)"/><path class="9d71d192-8fc2-4837-bd8c-556eba579603" d="M398,274.08a20,20,0,0,1-2.66,1.5,27.66,27.66,0,0,1-6.75,1.92,22.93,22.93,0,0,1-12.91-.79c-3-1.1-5.42-3-5.67-6-0.15-3.59,2.23-5.62,5.12-7a21.72,21.72,0,0,1,6.3-2.34,44.87,44.87,0,0,1,8.67-.64,28,28,0,0,1,6.75.59c2.41,0.64,2.28.67,2.86,1.13-3.82,2.26-8.29,3.08-12.66,3.69-0.23-2.14-1.22-2.74-3-2.71a19.94,19.94,0,0,1-2.07-.15c-1.72.09-3.25,0.33-4,2.17a5,5,0,0,0,1,5.7,12.74,12.74,0,0,0,6.56,3.61,12.5,12.5,0,0,0,6.16.39c2.56-.49,3.72-1,5.67-1.48C398.6,273.11,397.87,273.92,398,274.08Z" transform="translate(31.88 -229.37)"/><path class="9d71d192-8fc2-4837-bd8c-556eba579603" d="M90.33,263.21c-2.42,1.28-4.28,1.56-10,2.46a3.13,3.13,0,0,0-2.2-2.35,7.57,7.57,0,0,0-5.63,1.12c-1.46,1-1.77,4.09-.49,5.91a10.1,10.1,0,0,0,3.25,3.05,12.77,12.77,0,0,0,4.92,1.85,14.51,14.51,0,0,0,5.72-.52c1.33-.33,2.57-0.85,3.89-1.23a0.59,0.59,0,0,1,.64.54,7.12,7.12,0,0,1-1.38,1,37.7,37.7,0,0,1-5.67,2,19.38,19.38,0,0,1-12.66-.1,12.4,12.4,0,0,1-4.53-2.46,5.22,5.22,0,0,1-1.81-3.8c-0.2-3.72,2.14-5.81,5.16-7.28A27,27,0,0,1,83,260.75a30.78,30.78,0,0,1,6.35.64C92.45,262.08,92.06,262.77,90.33,263.21Z" transform="translate(31.88 -229.37)"/><path class="9d71d192-8fc2-4837-bd8c-556eba579603" d="M225.23,274.1a6.73,6.73,0,0,1-1.26,1c-5.93,2.83-12,4.31-18.51,2.1a13.28,13.28,0,0,1-4.22-2.34,5.92,5.92,0,0,1-.34-8.94c2.58-2.71,5.2-3.73,8.8-4.72a42.18,42.18,0,0,1,14.59.35,4.23,4.23,0,0,1,2.24,1c-3.47,2.31-7.74,2.52-11.61,3.21-0.2-3.35-4-3-6.79-1.76-2.52,1.12-2.58,4-1.11,6.29,1.82,2.82,4.67,4,7.79,4.85,2.71,0.73,5.16-.08,7.66-0.85,0.84-.26,1.71-0.45,2.57-0.68Z" transform="translate(31.88 -229.37)"/><path class="9d71d192-8fc2-4837-bd8c-556eba579603" d="M350.58,262.79a12.33,12.33,0,0,1-3,1.21,7.75,7.75,0,0,1-3.69.2c-1.25-.17-2.65-0.85-3.89-0.89s-3.2.45-3.84,1.33a1.52,1.52,0,0,0-.2,1.28,2,2,0,0,0,1.4,1.14c2.47,0.33,4.15.31,6.63,0.58,1.49,0.16,3.35-.18,4.73.34,0.94,0.36,2.38.95,2.76,1.87a4,4,0,0,1-1.34,4.17,20.05,20.05,0,0,1-3.8,2.05,27.25,27.25,0,0,1-7.47,1.8,22.08,22.08,0,0,1-3.06.3,18,18,0,0,1-3.79-.1c-0.23,0-1.61-.56-1.43-0.44,0.39,0.26-.7-0.2-2.36-1.38a4.35,4.35,0,0,1,1.67-1.52c1.59-.7,3.15-1.72,5.22,0,2,1.31,5.23,1.07,7.58.46a2.94,2.94,0,0,0,1.53-2.12c0.12-.59-1.48-2-2.12-2.17a18,18,0,0,0-3.25-.44c-1.56-.28-1.53-0.06-3.1-0.3-1.06-.16-2.94-0.28-4.19-0.44-1.88-.25-2.32-1.75-1.23-3.35a7.82,7.82,0,0,1,2.71-2.17,27.93,27.93,0,0,1,9.11-3.2,17.15,17.15,0,0,1,6.75.25,16.41,16.41,0,0,1,1.73,1Z" transform="translate(31.88 -229.37)"/><path class="9d71d192-8fc2-4837-bd8c-556eba579603" d="M137.71,275.35l11.14,0c0.12,0.16.34-.34,0.84,0.25a1.73,1.73,0,0,1-1.18,1.33,9.71,9.71,0,0,1-4.93,1.13c-1.43-.15-2-0.49-2.46-0.49-2.94,0-6.33.25-9.26,0-1.43-.1-1.63-0.19-2.17-0.59a1.13,1.13,0,0,1-.2-1.38,5.13,5.13,0,0,0,.84-1c0-6,.21-5.82-0.37-8.72a3.91,3.91,0,0,0-2-2c-1-.38-2.24,0-3.9-0.24a48.44,48.44,0,0,1,13.69-5v16.67Z" transform="translate(31.88 -229.37)"/><path class="9d71d192-8fc2-4837-bd8c-556eba579603" d="M366.16,261.19a37.94,37.94,0,0,0-.5,4c-0.06,3.43-.05,6.86,0,10.29,0,1,0,1.44-1,1.66-1.52.31-4,.67-5.57,0.94s-1-.22-1-1.55c0.09-2.56-.1-5.12.07-7.67,0.11-1.65-.5-2.35-2.42-2.5a6.8,6.8,0,0,1-2.6-.54Z" transform="translate(31.88 -229.37)"/><path class="9d71d192-8fc2-4837-bd8c-556eba579603" d="M195.63,261.2c-0.1.75-.68,1.42-0.77,2.06s0.06,2.93,0,3.55c-0.06,3.42,0,5.25,0,8.67,0,1.12-.09,1.34-1.13,1.63-0.39.11-1.63,0.47-2,.59a9.52,9.52,0,0,1-3.2.44c-0.79,0-.57-1-0.57-3.44,0-2-.14-4,0-5.92,0-2.81-.71-2.49-2.08-2.66a6.48,6.48,0,0,1-2.52-.35Z" transform="translate(31.88 -229.37)"/><path class="9d71d192-8fc2-4837-bd8c-556eba579603" d="M14.56,314c1.21-3.64,2.12-7.61,3.26-11,3.15,1.77,5.71,3.45,9,4.33C26,313.32,20.81,316.76,14.56,314Z" transform="translate(31.88 -229.37)"/><path class="9d71d192-8fc2-4837-bd8c-556eba579603" d="M368.29,258c-2,1.57-6.7,3-9.4,3.17-1,0-1.53.2-1.52-.56C360.08,259,364.65,258.84,368.29,258Z" transform="translate(31.88 -229.37)"/><path class="9d71d192-8fc2-4837-bd8c-556eba579603" d="M197.57,258.43c-3.27,1.35-4.79,2.83-8.47,2.71-2.46.2-1.57-.31-1.63-0.55,0.78-.2,1.34-0.63,2.12-0.83l7.59-2C198.16,257.54,198.11,257.84,197.57,258.43Z" transform="translate(31.88 -229.37)"/><path class="9d71d192-8fc2-4837-bd8c-556eba579603" d="M-3.82,229.37c3.33,0.37,5.9,2.17,8.37,4.29,4.51,3.85,9.43,3.39,15,2.13,4-.91,7.49-3.44,11.48-4.35,2.5-.57,4.69-0.16,7.29.2a7.58,7.58,0,0,1,5.33,4.17c0.74,1.81,1.55,3.14,1.67,5.09a1.82,1.82,0,0,1-1.38,2.17c-2.7.4-4.83,0.36-6.9-.79-0.34-.19,0-0.42,0-0.87a4.11,4.11,0,0,0-3.19-4.65c-2.85-.89-5.29-0.44-6.9,1.58a2.67,2.67,0,0,0-.59,1.77c1.24,2.73,2.66,5.77,4,8.57,0.1-.49,1.83-3.26,2.56-4.53s0.79-1,1.38-.49C28,262.89,21.9,280.51,15.65,299.51c-1.7-.87-2.7-1.21-4.47-2.11,2.49-3.55,1.64-7.09.47-10.81-4.45-14.17-8.74-28.4-13-42.62a8.06,8.06,0,0,0-4.68-5.47c-1.7-.74-3.35-1.62-5-2.49s-2.51-.89-1.28-2.22c1.82-2,3.24-3.75,5.81-4.43h2.69Zm30.12,28.47c1-2.67,2-5.15,2.79-7.43a1.44,1.44,0,0,0-.17-1c-1.49-2.94-3.21-6-4.78-9-1.3.49-2.64,0.89-3.94,1.38ZM17.43,283c0.59-1.18.16-1.64-.28-3C13.34,268.49,8.79,254.58,5,243.06c-0.69-.49-1.77-0.49-4.33-0.89,4.69,15.6,9.26,31.63,14.09,47.68A60.46,60.46,0,0,1,17.43,283Zm1.08-4.33c1-2.8,2.1-5.39,3-7.78a0.61,0.61,0,0,0,0-.64q-4.7-13.1-9.47-26.17c-0.15-.42-0.31-1.34-0.73-1.37a44,44,0,0,0-4.53,0C11.81,258.41,15.8,270.3,18.51,278.63ZM25.31,260a1.31,1.31,0,0,0-.08-1c-2.13-5.26-4.26-10.52-6.46-15.74-0.18-.42-0.17-1.19-0.65-1.21a45.28,45.28,0,0,0-4.63.2c2.85,8.33,6.13,16.83,9.06,25.42C23.59,264.87,24.48,262.39,25.31,260Z" transform="translate(31.88 -229.37)"/><path class="9d71d192-8fc2-4837-bd8c-556eba579603" d="M-7,314.59c-0.57.27-1.35,0.43-1.77,0.63-0.81.38-1.26,1-1.63,0.92a3,3,0,0,1,1.11-1.66A2.65,2.65,0,0,1-7,314.59Z" transform="translate(31.88 -229.37)"/><path class="9d71d192-8fc2-4837-bd8c-556eba579603" d="M118.8,275a32.47,32.47,0,0,1-3.15,1.53,19.46,19.46,0,0,1-5.52,1.28A22.57,22.57,0,0,1,98,277c-2.51-1-4.78-2.65-5.13-5.62a6.61,6.61,0,0,1,1.78-5.22,16.74,16.74,0,0,1,6.35-4,24.13,24.13,0,0,1,7-1.67,31.4,31.4,0,0,1,5.91-.15,12.92,12.92,0,0,1,4,.84c1.63,0.89.48,0.34,1.38,0.79,0,0.19,1.28.64-.2,1.58-2.64,1.25-4.56,1.86-7.19,3.1,0,0.15,0,.49,0,0.64,3.51,0.22,7.13.27,10.64,0.49,0.07,0.14.34,0.35-.25,0.84a9.15,9.15,0,0,1-2.12.79,34.63,34.63,0,0,1-12,.84c-0.87-.08-1.48-0.13-2.36-0.15a15.67,15.67,0,0,0-3.35,0c-1.08.25-1.08,0.63-2.17,1,1.13,2.17,2.85,2.74,4.4,3.35a16.34,16.34,0,0,0,4.12,1c3.54,0.56,6.7-.54,10-1.92C120,273,119.94,274.19,118.8,275Zm-6.21-10.79c-0.48-.52,0-0.35-2.86-0.94a29.61,29.61,0,0,0-7.64.3,4.11,4.11,0,0,0-2.81,5.12c0.25,0.87.81,1.3,2.07,0.79,3.12-1.26,5.74-2.15,8.87-3.4a17,17,0,0,0,2.27-1.13A7.2,7.2,0,0,0,112.6,264.19Z" transform="translate(31.88 -229.37)"/><path class="85932dea-21a7-482b-aaf2-be8f18029544" d="M72.6,255.28v1q-1.16.09-2,.09-4.08,0-4.08-2.58v-5.12H64v-1h2.49l0.1-2.14,2-.12v2.26h3.15v1H68.64v5.34q0,1.31,2.26,1.31Q71.66,255.38,72.6,255.28Z" transform="translate(31.88 -229.37)"/><path class="85932dea-21a7-482b-aaf2-be8f18029544" d="M87.69,256.18H85.18V251a3.33,3.33,0,0,0-.22-1.36,1.85,1.85,0,0,0-1-.79,4.87,4.87,0,0,0-1.86-.33,5.9,5.9,0,0,0-3.24.83,2.54,2.54,0,0,0-1.3,2.23v4.58H75V244.7h2.51v4.55a6.43,6.43,0,0,1,4.89-1.8,9.93,9.93,0,0,1,2.53.29,4.55,4.55,0,0,1,1.7.77,2.79,2.79,0,0,1,.81.95,4,4,0,0,1,.22,1.56v5.16Z" transform="translate(31.88 -229.37)"/><path class="85932dea-21a7-482b-aaf2-be8f18029544" d="M102.69,253.65L105,253.9a4.71,4.71,0,0,1-2.49,1.8,12.12,12.12,0,0,1-4.36.71,10.31,10.31,0,0,1-5.35-1.23,3.66,3.66,0,0,1-2-3.21,3.73,3.73,0,0,1,2.12-3.28,10.37,10.37,0,0,1,5.33-1.25,9.83,9.83,0,0,1,5.09,1.15,3.87,3.87,0,0,1,2,3.45H93.57a2.57,2.57,0,0,0,1.53,2.6,8,8,0,0,0,3.24.67Q101.43,255.33,102.69,253.65Zm-0.14-2.58a2.24,2.24,0,0,0-.45-1.27,3.15,3.15,0,0,0-1.41-.95,6.46,6.46,0,0,0-2.38-.39,6.56,6.56,0,0,0-3.17.71,2.53,2.53,0,0,0-1.46,1.9h8.87Z" transform="translate(31.88 -229.37)"/><path class="85932dea-21a7-482b-aaf2-be8f18029544" d="M78.94,293.88H76.57a8.33,8.33,0,0,1-.27-1.47q-1.59,1.7-5.4,1.7a8.74,8.74,0,0,1-4-.73,2.09,2.09,0,0,1-1.39-1.75q0-1.24,2-2a20,20,0,0,1,6.75-.8l2,0a2.65,2.65,0,0,0-.28-1.41,2.05,2.05,0,0,0-1.2-.69,9.11,9.11,0,0,0-2.41-.26q-3.65,0-4.24,1.47l-2.21-.2q0.81-2.26,6.81-2.26a9.88,9.88,0,0,1,4.53.75,2.72,2.72,0,0,1,1.34,2.6v3.47A3.86,3.86,0,0,0,78.94,293.88Zm-2.64-4.09q-1.47,0-2.23,0a15.35,15.35,0,0,0-4.41.5q-1.57.5-1.57,1.45a1.23,1.23,0,0,0,.85,1,5.66,5.66,0,0,0,2.45.42,6.85,6.85,0,0,0,3.56-.84,2.36,2.36,0,0,0,1.4-2A3.78,3.78,0,0,0,76.3,289.79Z" transform="translate(31.88 -229.37)"/><path class="85932dea-21a7-482b-aaf2-be8f18029544" d="M82.36,291.76l2.17-.25q0.72,1.55,4.56,1.55a7.07,7.07,0,0,0,2.4-.36,1.18,1.18,0,0,0,1-1q0-1-2.5-1.22l-3.07-.33a8,8,0,0,1-2.87-.76,1.69,1.69,0,0,1-1.07-1.5,2,2,0,0,1,1.46-1.72,9.28,9.28,0,0,1,3.93-.69q4.75,0,5.86,2.08l-2.08.25q-0.89-1.28-3.68-1.28a6.83,6.83,0,0,0-2.27.32,1.06,1.06,0,0,0-.89.89q0,0.91,2.27,1.14l2.84,0.29q4.46,0.46,4.46,2.43,0,1.13-1.66,1.82a11.68,11.68,0,0,1-4.42.69Q83.59,294.1,82.36,291.76Z" transform="translate(31.88 -229.37)"/><path class="85932dea-21a7-482b-aaf2-be8f18029544" d="M97.87,291.76l2.09-.25q0.7,1.55,4.4,1.55a6.6,6.6,0,0,0,2.31-.36,1.16,1.16,0,0,0,.95-1q0-1-2.41-1.22l-3-.33a7.53,7.53,0,0,1-2.77-.76,1.69,1.69,0,0,1-1-1.5,2,2,0,0,1,1.41-1.72,8.68,8.68,0,0,1,3.79-.69q4.58,0,5.65,2.08l-2,.25q-0.86-1.28-3.55-1.28a6.37,6.37,0,0,0-2.19.32,1,1,0,0,0-.86.89q0,0.91,2.19,1.14l2.74,0.29q4.3,0.46,4.3,2.43,0,1.13-1.6,1.82a10.9,10.9,0,0,1-4.26.69Q99,294.1,97.87,291.76Z" transform="translate(31.88 -229.37)"/><path class="85932dea-21a7-482b-aaf2-be8f18029544" d="M120.15,294.1a8.86,8.86,0,0,1-5.06-1.25,3.67,3.67,0,0,1-1.82-3.1,3.51,3.51,0,0,1,2-3.12,10.12,10.12,0,0,1,5.09-1.17,9.33,9.33,0,0,1,5.14,1.23,3.43,3.43,0,0,1-.15,6.19A10.12,10.12,0,0,1,120.15,294.1Zm0.19-1.05a5.75,5.75,0,0,0,3.14-.8,2.74,2.74,0,0,0,1.26-2.49,2.63,2.63,0,0,0-1.33-2.47,6.09,6.09,0,0,0-3.11-.77,5.82,5.82,0,0,0-3.09.77,2.66,2.66,0,0,0-1.26,2.45,2.73,2.73,0,0,0,1.26,2.54A5.93,5.93,0,0,0,120.34,293.05Z" transform="translate(31.88 -229.37)"/><path class="85932dea-21a7-482b-aaf2-be8f18029544" d="M141.86,291l2.39,0.2a3.88,3.88,0,0,1-2.24,2.12,10.67,10.67,0,0,1-4.32.77,9.56,9.56,0,0,1-5.36-1.25,3.44,3.44,0,0,1,.1-6.15,9.79,9.79,0,0,1,5.29-1.24,10.44,10.44,0,0,1,4.45.8,3.62,3.62,0,0,1,2.08,2.06l-2.39.22q-0.67-2-4.06-2a5.45,5.45,0,0,0-3.36.9,2.79,2.79,0,0,0-1.18,2.32,2.87,2.87,0,0,0,1.17,2.44,5.4,5.4,0,0,0,3.28.87Q141,293.05,141.86,291Z" transform="translate(31.88 -229.37)"/><path class="85932dea-21a7-482b-aaf2-be8f18029544" d="M150.25,282.82v1.42h-2.32v-1.42h2.32Zm-0.07,2.87v8.18H148V285.7h2.16Z" transform="translate(31.88 -229.37)"/><path class="85932dea-21a7-482b-aaf2-be8f18029544" d="M167.35,293.88H165a8.34,8.34,0,0,1-.27-1.47q-1.59,1.7-5.4,1.7a8.74,8.74,0,0,1-4-.73,2.09,2.09,0,0,1-1.39-1.75q0-1.24,2-2a20,20,0,0,1,6.75-.8l2,0a2.66,2.66,0,0,0-.28-1.41,2.06,2.06,0,0,0-1.2-.69,9.11,9.11,0,0,0-2.41-.26q-3.65,0-4.24,1.47l-2.21-.2q0.81-2.26,6.81-2.26a9.88,9.88,0,0,1,4.53.75,2.72,2.72,0,0,1,1.34,2.6v3.47A3.86,3.86,0,0,0,167.35,293.88Zm-2.64-4.09q-1.47,0-2.23,0a15.35,15.35,0,0,0-4.41.5q-1.57.5-1.57,1.45a1.23,1.23,0,0,0,.85,1,5.66,5.66,0,0,0,2.45.42,6.85,6.85,0,0,0,3.56-.84,2.36,2.36,0,0,0,1.4-2A3.69,3.69,0,0,0,164.71,289.79Z" transform="translate(31.88 -229.37)"/><path class="85932dea-21a7-482b-aaf2-be8f18029544" d="M178.35,293v1q-1.14.09-2,.09-4,0-4-2.48v-4.93h-2.46v-1h2.46l0.1-2.06,2-.11v2.17h3.11v1h-3.11v5.14q0,1.27,2.23,1.27Q177.41,293.1,178.35,293Z" transform="translate(31.88 -229.37)"/><path class="85932dea-21a7-482b-aaf2-be8f18029544" d="M182.58,282.82v1.42h-2.32v-1.42h2.32Zm-0.07,2.87v8.18h-2.16V285.7h2.16Z" transform="translate(31.88 -229.37)"/><path class="85932dea-21a7-482b-aaf2-be8f18029544" d="M193.06,294.1a9.4,9.4,0,0,1-5.23-1.25,3.65,3.65,0,0,1-1.88-3.1,3.5,3.5,0,0,1,2.11-3.12,10.75,10.75,0,0,1,5.26-1.17,9.89,9.89,0,0,1,5.31,1.23,3.39,3.39,0,0,1-.15,6.19A10.75,10.75,0,0,1,193.06,294.1Zm0.19-1.05a6.1,6.1,0,0,0,3.24-.8,2.72,2.72,0,0,0,1.31-2.49,2.61,2.61,0,0,0-1.37-2.47,6.47,6.47,0,0,0-3.21-.77,6.17,6.17,0,0,0-3.19.77,2.64,2.64,0,0,0-1.31,2.45,2.71,2.71,0,0,0,1.31,2.54A6.29,6.29,0,0,0,193.25,293.05Z" transform="translate(31.88 -229.37)"/><path class="85932dea-21a7-482b-aaf2-be8f18029544" d="M216.39,293.88H214v-5.26a1.63,1.63,0,0,0-1-1.6,5.5,5.5,0,0,0-2.36-.46,6.19,6.19,0,0,0-3.22.78,2.33,2.33,0,0,0-1.3,2v4.49h-2.51V285.7H206v1.51a7.42,7.42,0,0,1,5.1-1.73,8.83,8.83,0,0,1,3.08.47,4,4,0,0,1,1.74,1.07,3.56,3.56,0,0,1,.47,2.14v4.73Z" transform="translate(31.88 -229.37)"/><path class="9d71d192-8fc2-4837-bd8c-556eba579603" d="M-31.88,300.33a7.42,7.42,0,0,0,2,.29c0.42-.19.55-0.68,0.22-1.82-0.42-1.42-.31-1.65-0.82-3.57-0.24-.87-0.53-2.84-0.67-3.73,0.16-.1.3-0.37,1.55,0.74,0.54,0.79.67,1.83,1.22,2.62,0.43,0.62.37,0.81,1,.78a2,2,0,0,0,.8-1.08c0.26-.9-0.16-1.92-0.18-2.87l0.47-.25,1,1.37c0.27,0.39.36,0.81,0.64,1.2,1.51-1.77,1.29-3.25.78-4.88a1.49,1.49,0,0,0-1.77-.41c-0.52.12-.82,0.67-1.44,0.81-0.26-1.33.13-1.77,0.52-2A3.07,3.07,0,0,1-23,288c1.33,1,1.28,2.43,1,4-0.11.67-.54,1.41-0.22,2a8.18,8.18,0,0,1,1.59.3,0.69,0.69,0,0,1,.52.81c-0.61.29-1.31,0-1.74,0.18s-0.59,0-.67.74a0.24,0.24,0,0,0,.26.3,18,18,0,0,1,2,.3,1,1,0,0,1,.3,1.22,3.72,3.72,0,0,0-1.44-.15,3.33,3.33,0,0,0-1.63.3,3.26,3.26,0,0,0-.78.81,2.31,2.31,0,0,0-.3,1.15,6.1,6.1,0,0,0,1.7.41,3.81,3.81,0,0,1,1.48.89,2.41,2.41,0,0,1,.44,1.4,1.86,1.86,0,0,1-.48,1.15,2.44,2.44,0,0,1-.7-0.92,1.61,1.61,0,0,0-2.48-.63,2.3,2.3,0,0,0-1,1.85,3.86,3.86,0,0,0,.11,1.51c0.62,2.18,3,3.25,4.36,4a5.65,5.65,0,0,1-.28-1.52,3,3,0,0,1,.09-1,1.14,1.14,0,0,1,1.39-.39,1.22,1.22,0,0,1,.5.76,7.78,7.78,0,0,0,.3,1.92,2.65,2.65,0,0,0,1.66,1.5,26.19,26.19,0,0,0,2.66,1.24c1.33,0.41,3.22.74,3.33,0.55-0.69-.79-2-1.63-2.62-2.48-1.27-1.73-.67-3.42,1.44-3.77a22.36,22.36,0,0,0,3-.75c0.54,0.71-.09,1.13-0.72,1.75s-1.18.74-1.4,1.07c-0.58.87,0.18,1.89,1.48,3.14,2,1.93,4.66,2.09,7.22,2.15,0.31,0,.92-0.25.83-0.53-0.52-1.63.95-.32,1.63,0.22,0.28,0.22.33-1,.7-0.89s0.18,1.37,1.06,1.57c1.7-.4,2.47-0.89,4.22-1.31,0.73-.17,2.43-0.49,3.18-0.67s2.77-.37,2.18-0.89A19.24,19.24,0,0,0,6,305.31a105.85,105.85,0,0,1-16.69-16.55c-7.58-9.15-9.72-17.4-9.16-27.68a26.22,26.22,0,0,1,3.4-12.48l1.54-2.64,4.83-8.22,6.22,3.7c-1.2,2.36-2.29,3.07-3.48,5.36a35.53,35.53,0,0,0-2.36,4.83c-4.34,12.92-3,25.32,6.76,36.8C1.79,294.12,8,298,14.3,301.66c1,0.6,1.28.83,1,2-0.81,3-1.35,6.21-2.2,9.16a1.39,1.39,0,0,1-1.1.8,28.87,28.87,0,0,0-7.14,1,8.62,8.62,0,0,0-2,.75,10.53,10.53,0,0,0-4.29,3.8c0.17,0.46.95,0.23,1.6,0a3.78,3.78,0,0,1,1.06-.17,0.87,0.87,0,0,1-.34.52c-0.26.26-.46,0.48-0.18,0.73S1.88,320,2.44,320c-0.08.14-.78,0.92-0.85,1s-0.37.44,0.16,0.58l0.91,0c0.38,0,.29,0,0.85,0,0.3,0.18,0,.55-0.3.55a0.76,0.76,0,0,0-.78.37c0.18,0.28.8,0.87,1,1.17s0,0.23.29,0.6c-0.11.11,0.21,0.73,0.1,0.84-0.2-.1-0.53-0.22-0.73-0.32s-0.58-.53-0.92-0.7c-0.09.12-.57-0.2-0.67-0.07s-0.14,1.27-.33,1.51a2.25,2.25,0,0,1-.48-0.89c-0.19-.2-0.19-0.29-0.38-0.5S0.06,323.94-.11,324c-0.44.18-.29,1-0.46,1.18-0.26-.36-0.62-0.61-0.9-1s-0.57-1.32-.81-1.66c-0.14-.19-0.26-0.3-0.41.59a3.77,3.77,0,0,0,.11.92A16.07,16.07,0,0,1-2.51,326c-0.74-.52-0.48-0.67-0.6-1.35,0-.83-0.57-0.46-0.65-0.35a13.64,13.64,0,0,0-.48,1.51c-0.39-.17-0.43-0.51-0.63-0.55-0.6-.13-0.76.52-1,1.11-0.7,1-.69.44-0.92,0.44-0.19-2.2.63-2.66,1.77-3.58,0.41-.33,1.7-0.59,2.07-1.11-0.1-.17.11-0.94,0-1.11-1.15.39-2.63,0.27-2.89-1.36,2.25,0.68,2.25.44,4.06-1.55A11.79,11.79,0,0,1,.33,316a7,7,0,0,0-5.39-1.07,15.24,15.24,0,0,0-3.4.92c-1.81,1-1.59,2.29-.37,3.22a3.52,3.52,0,0,1,.66.66,2.23,2.23,0,0,1-2.48.15c-0.52-.31-1-1.14-1.44-1.44-1.1,1.05-1.43,2.46-2.59,3s-3.6.38-4.32-.74a4.34,4.34,0,0,0,2.48-1l1-1c0.44-.44,1-1.69,1.44-2.14a4.77,4.77,0,0,1-1.15.26,1,1,0,0,1-1.07-.59c0.61-.29,1.91-0.45,2.51-0.74s1.31-.47,2.11-0.85l1.6-.77c-2.23-.41-3.89-0.65-5.51-1a22.81,22.81,0,0,1-7.76-3.31,32.21,32.21,0,0,1-3.29-3c-1.37-1.31-.53-0.9-1.92-2.18-0.69-.63-1.28-0.86-2.62-2.11a2.32,2.32,0,0,1-.55-1C-31.74,301-31.88,300.46-31.88,300.33Zm7.39-4.91a10.3,10.3,0,0,1-1.22,1.66,9,9,0,0,0-1.66,3,1.88,1.88,0,0,0,0,1.37c0.37,0.67.81,1.26,1.07,0.78s0-.37-0.3-0.92a1.82,1.82,0,0,1,.07-1.88,18.1,18.1,0,0,1,1.11-1.88,14.8,14.8,0,0,1,1.15-1.74s0.89-1.29.59-1.29A2.28,2.28,0,0,0-24.49,295.41Zm-3,1.66a4,4,0,0,0-.92,1.51,6,6,0,0,0,0,3.66c0.18,0.18,0-1,.15-2a5.93,5.93,0,0,1,.55-2.11c0.18-.37.89-1.44,0.89-1.44Zm15.78,18.84a4,4,0,0,0-1.15.85c-0.44.52-1.4,2-1.55,2.14a9.3,9.3,0,0,0,1.37-1.4,1.81,1.81,0,0,1,1.22-.89,0.53,0.53,0,0,0,.74-0.55C-11.08,315.8-11.71,315.92-11.71,315.92Zm7.83,7.46a1.31,1.31,0,0,0-1.07.67c-0.59.74-.41,0.74-0.41,0.74a2.46,2.46,0,0,0,.63-0.59,2.28,2.28,0,0,1,1-.55Zm3-2a8.94,8.94,0,0,0,1.33,1.26c0.59,0.44.92,0.48,0.89,0.41A7.73,7.73,0,0,0,0,321.75c-0.59-.55-1.55-1.26-1.55-1.26A5.53,5.53,0,0,0-.89,321.42Z" transform="translate(31.88 -229.37)"/></svg>